<?xml version="1.0" encoding="utf-8"?>
<svg xmlns="http://www.w3.org/2000/svg" viewBox="92.6239 87.7237 850.7623 496.1028" width="1134.35px" height="661.47px">
  <defs>
    <clipPath id="44e5fa104a">
      <path d="M 872 87 L 944 87 L 944 154 L 872 154 Z M 872 87 "/>
    </clipPath>
    <clipPath id="34786e539b">
      <path d="M 29.414062 262.265625 L 942.878906 79.578125 L 1018.105469 455.710938 L 104.640625 638.398438 Z M 29.414062 262.265625 "/>
    </clipPath>
    <clipPath id="e663f2fd02">
      <path d="M 29.414062 262.265625 L 942.878906 79.578125 L 1018.105469 455.710938 L 104.640625 638.398438 Z M 29.414062 262.265625 "/>
    </clipPath>
  </defs>
  <path style=" stroke:none;fill-rule:nonzero;fill:#b6d9c4;fill-opacity:1;" d="M 886.179688 135.894531 C 884.109375 136.308594 881.886719 135.601562 880.433594 133.867188 C 878.316406 131.34375 878.65625 127.582031 881.183594 125.472656 C 890.21875 117.910156 900.125 111.476562 910.617188 106.347656 C 913.574219 104.898438 917.144531 106.125 918.585938 109.078125 C 920.035156 112.039062 918.808594 115.609375 915.855469 117.058594 C 906.222656 121.765625 897.132812 127.667969 888.828125 134.621094 C 888.035156 135.28125 887.125 135.703125 886.179688 135.894531 Z M 844.5 188.546875 C 843.171875 188.8125 841.75 188.628906 840.472656 187.929688 C 837.585938 186.355469 836.523438 182.730469 838.097656 179.84375 C 843.9375 169.144531 850.292969 159.351562 856.992188 150.726562 C 859.015625 148.125 862.757812 147.65625 865.359375 149.679688 C 867.960938 151.703125 868.421875 155.445312 866.410156 158.046875 C 860.101562 166.160156 854.09375 175.417969 848.566406 185.550781 C 847.683594 187.164062 846.164062 188.210938 844.5 188.546875 Z M 818.425781 250.820312 C 817.441406 251.015625 816.394531 250.96875 815.375 250.625 C 812.25 249.585938 810.566406 246.207031 811.605469 243.089844 C 815.582031 231.144531 819.4375 220.648438 823.40625 210.992188 C 824.652344 207.945312 828.140625 206.488281 831.1875 207.734375 C 834.226562 208.984375 835.683594 212.46875 834.4375 215.519531 C 830.578125 224.925781 826.804688 235.175781 822.914062 246.851562 C 822.210938 248.957031 820.457031 250.414062 818.425781 250.820312 Z M 798.621094 315.429688 C 797.675781 315.617188 796.671875 315.578125 795.6875 315.269531 C 792.542969 314.289062 790.78125 310.949219 791.765625 307.808594 C 793.472656 302.316406 795.242188 296.492188 797.160156 290.015625 L 798.160156 286.640625 C 799.25 282.953125 800.351562 279.242188 801.464844 275.515625 C 802.40625 272.355469 805.726562 270.570312 808.886719 271.503906 C 812.039062 272.453125 813.832031 275.773438 812.890625 278.925781 C 811.777344 282.648438 810.679688 286.347656 809.59375 290.027344 L 808.59375 293.410156 C 806.648438 299.9375 804.875 305.804688 803.148438 311.347656 C 802.480469 313.503906 800.691406 315.015625 798.621094 315.429688 Z M 337.210938 427.449219 C 335.835938 427.722656 334.359375 427.515625 333.046875 426.753906 C 330.203125 425.09375 329.242188 421.445312 330.898438 418.601562 C 337.320312 407.558594 348.492188 399.074219 360.78125 395.894531 C 363.945312 395.078125 367.222656 396.988281 368.046875 400.179688 C 368.875 403.371094 366.953125 406.621094 363.769531 407.445312 C 354.496094 409.832031 346.058594 416.246094 341.199219 424.597656 C 340.304688 426.136719 338.832031 427.125 337.210938 427.449219 Z M 415.976562 439.90625 C 413.132812 440.472656 410.230469 438.894531 409.210938 436.089844 C 405.777344 426.605469 399.203125 418.097656 391.167969 412.753906 C 388.425781 410.929688 387.683594 407.226562 389.507812 404.484375 C 391.328125 401.746094 395.03125 401.003906 397.773438 402.824219 C 408.039062 409.65625 416.078125 420.023438 420.425781 432.035156 C 421.542969 435.128906 419.941406 438.546875 416.84375 439.664062 C 416.558594 439.765625 416.273438 439.847656 415.976562 439.90625 Z M 775.667969 378.9375 C 774.523438 379.164062 773.289062 379.058594 772.136719 378.558594 C 769.117188 377.253906 767.722656 373.746094 769.027344 370.726562 C 773.191406 361.078125 777.175781 350.90625 781.203125 339.628906 C 782.308594 336.535156 785.722656 334.917969 788.816406 336.023438 C 791.917969 337.132812 793.535156 340.539062 792.433594 343.644531 C 788.316406 355.15625 784.246094 365.5625 779.972656 375.449219 C 779.171875 377.316406 777.519531 378.566406 775.667969 378.9375 Z M 356.488281 486.363281 C 354.59375 486.742188 352.554688 486.191406 351.089844 484.726562 C 348.164062 481.789062 345.277344 478.726562 342.542969 475.609375 C 338.613281 471.167969 332.972656 464.335938 329.320312 456.453125 C 327.933594 453.464844 329.234375 449.917969 332.222656 448.53125 C 335.203125 447.152344 338.75 448.453125 340.136719 451.4375 C 342.453125 456.4375 345.945312 461.457031 351.480469 467.722656 C 354.058594 470.652344 356.773438 473.539062 359.53125 476.3125 C 361.855469 478.636719 361.851562 482.414062 359.523438 484.738281 C 358.660156 485.605469 357.601562 486.140625 356.488281 486.363281 Z M 743.234375 438.027344 C 741.6875 438.339844 740.023438 438.03125 738.640625 437.058594 C 735.945312 435.167969 735.292969 431.449219 737.191406 428.75 C 743.292969 420.0625 749.136719 410.59375 754.5625 400.625 C 756.132812 397.730469 759.757812 396.660156 762.644531 398.234375 C 765.539062 399.804688 766.609375 403.421875 765.035156 406.316406 C 759.398438 416.6875 753.3125 426.542969 746.941406 435.609375 C 746.03125 436.914062 744.683594 437.738281 743.234375 438.027344 Z M 406.941406 505.472656 C 405.859375 505.691406 404.699219 505.613281 403.585938 505.175781 C 400.523438 503.964844 399.027344 500.503906 400.234375 497.441406 C 404.464844 486.726562 407.902344 475.597656 409.917969 466.105469 C 410.597656 462.886719 413.765625 460.832031 416.988281 461.511719 C 420.207031 462.199219 422.261719 465.359375 421.574219 468.582031 C 419.433594 478.699219 415.789062 490.503906 411.328125 501.820312 C 410.550781 503.773438 408.859375 505.089844 406.941406 505.472656 Z M 411.28125 525.324219 C 410.042969 525.570312 408.714844 525.429688 407.496094 524.832031 C 397.007812 519.707031 386.964844 513.757812 377.640625 507.152344 C 374.957031 505.242188 374.324219 501.519531 376.222656 498.835938 C 378.132812 496.152344 381.847656 495.515625 384.539062 497.421875 C 393.332031 503.660156 402.820312 509.277344 412.734375 514.117188 C 415.695312 515.566406 416.917969 519.132812 415.472656 522.09375 C 414.625 523.835938 413.039062 524.972656 411.28125 525.324219 Z M 133.320312 581.863281 C 132.789062 581.96875 132.234375 582.003906 131.667969 581.960938 C 120.140625 581.039062 108.71875 579.75 97.722656 578.132812 C 94.464844 577.65625 92.210938 574.625 92.6875 571.371094 C 93.175781 568.113281 96.199219 565.859375 99.453125 566.339844 C 110.1875 567.914062 121.347656 569.175781 132.625 570.078125 C 135.902344 570.339844 138.351562 573.214844 138.089844 576.492188 C 137.875 579.214844 135.863281 581.355469 133.320312 581.863281 Z M 200.835938 583.414062 C 200.511719 583.476562 200.175781 583.523438 199.835938 583.53125 C 188.296875 583.867188 176.835938 583.917969 165.75 583.675781 C 162.457031 583.601562 159.851562 580.882812 159.921875 577.589844 C 159.992188 574.292969 162.722656 571.6875 166.007812 571.757812 C 176.886719 572 188.144531 571.941406 199.484375 571.609375 C 202.773438 571.515625 205.519531 574.101562 205.621094 577.394531 C 205.707031 580.339844 203.636719 582.851562 200.835938 583.414062 Z M 697.578125 487.511719 C 695.496094 487.929688 693.25 487.210938 691.800781 485.453125 C 689.714844 482.917969 690.078125 479.15625 692.613281 477.0625 C 701.082031 470.089844 709.128906 462.476562 716.523438 454.4375 C 718.757812 452.019531 722.53125 451.859375 724.949219 454.089844 C 727.375 456.320312 727.523438 460.089844 725.300781 462.515625 C 717.527344 470.953125 709.082031 478.945312 700.195312 486.265625 C 699.414062 486.910156 698.511719 487.324219 697.578125 487.511719 Z M 367.003906 557.671875 C 364.398438 558.195312 361.667969 556.910156 360.464844 554.40625 C 359.042969 551.433594 360.296875 547.871094 363.261719 546.453125 C 366.960938 544.683594 370.464844 542.703125 373.671875 540.570312 C 376.183594 538.910156 380.304688 535.152344 385.746094 526.667969 C 387.515625 523.894531 391.207031 523.085938 393.976562 524.867188 C 396.746094 526.644531 397.558594 530.324219 395.78125 533.101562 C 390.519531 541.316406 385.296875 547.167969 380.261719 550.507812 C 376.59375 552.941406 372.613281 555.1875 368.421875 557.199219 C 367.960938 557.421875 367.480469 557.578125 367.003906 557.671875 Z M 268.203125 578.417969 C 268.042969 578.449219 267.875 578.476562 267.714844 578.492188 C 256.265625 579.820312 244.871094 580.910156 233.84375 581.738281 C 230.558594 581.980469 227.695312 579.523438 227.445312 576.238281 C 227.203125 572.957031 229.671875 570.09375 232.945312 569.84375 C 243.820312 569.03125 255.054688 567.957031 266.339844 566.648438 C 269.613281 566.273438 272.570312 568.613281 272.945312 571.886719 C 273.308594 574.988281 271.210938 577.816406 268.203125 578.417969 Z M 330.402344 569.046875 C 326.59375 569.808594 322.464844 570.558594 317.421875 571.410156 C 312.085938 572.304688 306.699219 573.171875 301.414062 573.972656 C 298.160156 574.464844 295.117188 572.230469 294.621094 568.972656 C 294.128906 565.71875 296.394531 562.640625 299.621094 562.183594 C 304.847656 561.390625 310.175781 560.535156 315.445312 559.648438 C 320.367188 558.824219 324.382812 558.09375 328.0625 557.359375 C 329.554688 557.0625 331.03125 556.75 332.515625 556.421875 C 332.554688 556.414062 332.582031 556.410156 332.617188 556.402344 C 335.800781 555.765625 338.914062 557.796875 339.613281 560.976562 C 340.316406 564.199219 338.273438 567.375 335.058594 568.078125 C 333.507812 568.410156 331.957031 568.738281 330.402344 569.046875 Z M 475.464844 545.640625 C 474.769531 545.777344 474.042969 545.796875 473.3125 545.671875 C 461.816406 543.734375 450.5 541.035156 439.6875 537.628906 C 436.542969 536.640625 434.796875 533.296875 435.785156 530.15625 C 436.769531 527.019531 440.117188 525.265625 443.257812 526.253906 C 453.558594 529.492188 464.332031 532.070312 475.285156 533.910156 C 478.53125 534.457031 480.71875 537.53125 480.179688 540.777344 C 479.757812 543.292969 477.824219 545.167969 475.464844 545.640625 Z M 640.429688 523.171875 C 637.773438 523.703125 635.015625 522.367188 633.84375 519.808594 C 632.46875 516.8125 633.785156 513.277344 636.773438 511.902344 C 646.898438 507.269531 656.675781 502.019531 665.851562 496.292969 C 668.640625 494.554688 672.324219 495.40625 674.0625 498.195312 C 675.808594 500.992188 674.949219 504.667969 672.164062 506.414062 C 662.554688 512.398438 652.320312 517.898438 641.742188 522.742188 C 641.316406 522.941406 640.871094 523.085938 640.429688 523.171875 Z M 542.804688 548.414062 C 542.574219 548.460938 542.339844 548.492188 542.101562 548.507812 C 530.597656 549.425781 519 549.660156 507.640625 549.210938 C 504.347656 549.070312 501.785156 546.304688 501.917969 543.011719 C 502.054688 539.71875 504.816406 537.167969 508.113281 537.289062 C 519.003906 537.730469 530.125 537.507812 541.15625 536.625 C 544.4375 536.367188 547.3125 538.816406 547.578125 542.097656 C 547.816406 545.140625 545.730469 547.828125 542.804688 548.414062 Z M 576.984375 543.648438 L 576.226562 543.796875 C 572.996094 544.429688 569.867188 542.324219 569.234375 539.09375 C 568.597656 535.875 570.695312 532.746094 573.914062 532.105469 C 573.921875 532.101562 573.929688 532.101562 573.9375 532.097656 L 574.644531 531.957031 C 585.214844 529.84375 595.75 527.113281 605.957031 523.835938 C 609.089844 522.835938 612.445312 524.5625 613.453125 527.695312 C 614.457031 530.832031 612.730469 534.1875 609.597656 535.191406 C 598.964844 538.605469 587.992188 541.445312 576.984375 543.648438 "/>
  <g clip-rule="nonzero" clip-path="url(#44e5fa104a)">
    <g clip-rule="nonzero" clip-path="url(#34786e539b)">
      <g clip-rule="nonzero" clip-path="url(#e663f2fd02)">
        <path style=" stroke:none;fill-rule:nonzero;fill:#b6d9c4;fill-opacity:1;" d="M 942.871094 95.503906 L 917.476562 150.351562 C 915.355469 154.914062 908.726562 154.457031 907.269531 149.640625 L 899.070312 122.648438 C 898.734375 121.527344 898.039062 120.539062 897.09375 119.839844 L 874.445312 103.027344 C 870.40625 100.027344 872.203125 93.628906 877.214844 93.175781 L 937.414062 87.746094 C 941.613281 87.375 944.640625 91.679688 942.871094 95.503906 "/>
      </g>
    </g>
  </g>
</svg>