<svg xmlns="http://www.w3.org/2000/svg" xmlns:xlink="http://www.w3.org/1999/xlink" viewBox="0 0 1500 750" preserveAspectRatio="xMidYMid meet" version="1.2"><defs><clipPath id="3cca594bce"><path d="M 92 105 L 920 105 L 920 584 L 92 584 Z M 92 105 "/></clipPath><clipPath id="825577c776"><path d="M 29.414062 262.265625 L 942.878906 79.578125 L 1018.105469 455.710938 L 104.640625 638.398438 Z M 29.414062 262.265625 "/></clipPath><clipPath id="f253e9cfe9"><path d="M 29.414062 262.265625 L 942.878906 79.578125 L 1018.105469 455.710938 L 104.640625 638.398438 Z M 29.414062 262.265625 "/></clipPath><clipPath id="44e5fa104a"><path d="M 872 87 L 944 87 L 944 154 L 872 154 Z M 872 87 "/></clipPath><clipPath id="34786e539b"><path d="M 29.414062 262.265625 L 942.878906 79.578125 L 1018.105469 455.710938 L 104.640625 638.398438 Z M 29.414062 262.265625 "/></clipPath><clipPath id="e663f2fd02"><path d="M 29.414062 262.265625 L 942.878906 79.578125 L 1018.105469 455.710938 L 104.640625 638.398438 Z M 29.414062 262.265625 "/></clipPath></defs><g id="7594e8dcf2"><g clip-rule="nonzero" clip-path="url(#3cca594bce)"><g clip-rule="nonzero" clip-path="url(#825577c776)"><g clip-rule="nonzero" clip-path="url(#f253e9cfe9)"><path style=" stroke:none;fill-rule:nonzero;fill:#b6d9c4;fill-opacity:1;" d="M 886.179688 135.894531 C 884.109375 136.308594 881.886719 135.601562 880.433594 133.867188 C 878.316406 131.34375 878.65625 127.582031 881.183594 125.472656 C 890.21875 117.910156 900.125 111.476562 910.617188 106.347656 C 913.574219 104.898438 917.144531 106.125 918.585938 109.078125 C 920.035156 112.039062 918.808594 115.609375 915.855469 117.058594 C 906.222656 121.765625 897.132812 127.667969 888.828125 134.621094 C 888.035156 135.28125 887.125 135.703125 886.179688 135.894531 Z M 844.5 188.546875 C 843.171875 188.8125 841.75 188.628906 840.472656 187.929688 C 837.585938 186.355469 836.523438 182.730469 838.097656 179.84375 C 843.9375 169.144531 850.292969 159.351562 856.992188 150.726562 C 859.015625 148.125 862.757812 147.65625 865.359375 149.679688 C 867.960938 151.703125 868.421875 155.445312 866.410156 158.046875 C 860.101562 166.160156 854.09375 175.417969 848.566406 185.550781 C 847.683594 187.164062 846.164062 188.210938 844.5 188.546875 Z M 818.425781 250.820312 C 817.441406 251.015625 816.394531 250.96875 815.375 250.625 C 812.25 249.585938 810.566406 246.207031 811.605469 243.089844 C 815.582031 231.144531 819.4375 220.648438 823.40625 210.992188 C 824.652344 207.945312 828.140625 206.488281 831.1875 207.734375 C 834.226562 208.984375 835.683594 212.46875 834.4375 215.519531 C 830.578125 224.925781 826.804688 235.175781 822.914062 246.851562 C 822.210938 248.957031 820.457031 250.414062 818.425781 250.820312 Z M 798.621094 315.429688 C 797.675781 315.617188 796.671875 315.578125 795.6875 315.269531 C 792.542969 314.289062 790.78125 310.949219 791.765625 307.808594 C 793.472656 302.316406 795.242188 296.492188 797.160156 290.015625 L 798.160156 286.640625 C 799.25 282.953125 800.351562 279.242188 801.464844 275.515625 C 802.40625 272.355469 805.726562 270.570312 808.886719 271.503906 C 812.039062 272.453125 813.832031 275.773438 812.890625 278.925781 C 811.777344 282.648438 810.679688 286.347656 809.59375 290.027344 L 808.59375 293.410156 C 806.648438 299.9375 804.875 305.804688 803.148438 311.347656 C 802.480469 313.503906 800.691406 315.015625 798.621094 315.429688 Z M 337.210938 427.449219 C 335.835938 427.722656 334.359375 427.515625 333.046875 426.753906 C 330.203125 425.09375 329.242188 421.445312 330.898438 418.601562 C 337.320312 407.558594 348.492188 399.074219 360.78125 395.894531 C 363.945312 395.078125 367.222656 396.988281 368.046875 400.179688 C 368.875 403.371094 366.953125 406.621094 363.769531 407.445312 C 354.496094 409.832031 346.058594 416.246094 341.199219 424.597656 C 340.304688 426.136719 338.832031 427.125 337.210938 427.449219 Z M 415.976562 439.90625 C 413.132812 440.472656 410.230469 438.894531 409.210938 436.089844 C 405.777344 426.605469 399.203125 418.097656 391.167969 412.753906 C 388.425781 410.929688 387.683594 407.226562 389.507812 404.484375 C 391.328125 401.746094 395.03125 401.003906 397.773438 402.824219 C 408.039062 409.65625 416.078125 420.023438 420.425781 432.035156 C 421.542969 435.128906 419.941406 438.546875 416.84375 439.664062 C 416.558594 439.765625 416.273438 439.847656 415.976562 439.90625 Z M 775.667969 378.9375 C 774.523438 379.164062 773.289062 379.058594 772.136719 378.558594 C 769.117188 377.253906 767.722656 373.746094 769.027344 370.726562 C 773.191406 361.078125 777.175781 350.90625 781.203125 339.628906 C 782.308594 336.535156 785.722656 334.917969 788.816406 336.023438 C 791.917969 337.132812 793.535156 340.539062 792.433594 343.644531 C 788.316406 355.15625 784.246094 365.5625 779.972656 375.449219 C 779.171875 377.316406 777.519531 378.566406 775.667969 378.9375 Z M 356.488281 486.363281 C 354.59375 486.742188 352.554688 486.191406 351.089844 484.726562 C 348.164062 481.789062 345.277344 478.726562 342.542969 475.609375 C 338.613281 471.167969 332.972656 464.335938 329.320312 456.453125 C 327.933594 453.464844 329.234375 449.917969 332.222656 448.53125 C 335.203125 447.152344 338.75 448.453125 340.136719 451.4375 C 342.453125 456.4375 345.945312 461.457031 351.480469 467.722656 C 354.058594 470.652344 356.773438 473.539062 359.53125 476.3125 C 361.855469 478.636719 361.851562 482.414062 359.523438 484.738281 C 358.660156 485.605469 357.601562 486.140625 356.488281 486.363281 Z M 743.234375 438.027344 C 741.6875 438.339844 740.023438 438.03125 738.640625 437.058594 C 735.945312 435.167969 735.292969 431.449219 737.191406 428.75 C 743.292969 420.0625 749.136719 410.59375 754.5625 400.625 C 756.132812 397.730469 759.757812 396.660156 762.644531 398.234375 C 765.539062 399.804688 766.609375 403.421875 765.035156 406.316406 C 759.398438 416.6875 753.3125 426.542969 746.941406 435.609375 C 746.03125 436.914062 744.683594 437.738281 743.234375 438.027344 Z M 406.941406 505.472656 C 405.859375 505.691406 404.699219 505.613281 403.585938 505.175781 C 400.523438 503.964844 399.027344 500.503906 400.234375 497.441406 C 404.464844 486.726562 407.902344 475.597656 409.917969 466.105469 C 410.597656 462.886719 413.765625 460.832031 416.988281 461.511719 C 420.207031 462.199219 422.261719 465.359375 421.574219 468.582031 C 419.433594 478.699219 415.789062 490.503906 411.328125 501.820312 C 410.550781 503.773438 408.859375 505.089844 406.941406 505.472656 Z M 411.28125 525.324219 C 410.042969 525.570312 408.714844 525.429688 407.496094 524.832031 C 397.007812 519.707031 386.964844 513.757812 377.640625 507.152344 C 374.957031 505.242188 374.324219 501.519531 376.222656 498.835938 C 378.132812 496.152344 381.847656 495.515625 384.539062 497.421875 C 393.332031 503.660156 402.820312 509.277344 412.734375 514.117188 C 415.695312 515.566406 416.917969 519.132812 415.472656 522.09375 C 414.625 523.835938 413.039062 524.972656 411.28125 525.324219 Z M 133.320312 581.863281 C 132.789062 581.96875 132.234375 582.003906 131.667969 581.960938 C 120.140625 581.039062 108.71875 579.75 97.722656 578.132812 C 94.464844 577.65625 92.210938 574.625 92.6875 571.371094 C 93.175781 568.113281 96.199219 565.859375 99.453125 566.339844 C 110.1875 567.914062 121.347656 569.175781 132.625 570.078125 C 135.902344 570.339844 138.351562 573.214844 138.089844 576.492188 C 137.875 579.214844 135.863281 581.355469 133.320312 581.863281 Z M 200.835938 583.414062 C 200.511719 583.476562 200.175781 583.523438 199.835938 583.53125 C 188.296875 583.867188 176.835938 583.917969 165.75 583.675781 C 162.457031 583.601562 159.851562 580.882812 159.921875 577.589844 C 159.992188 574.292969 162.722656 571.6875 166.007812 571.757812 C 176.886719 572 188.144531 571.941406 199.484375 571.609375 C 202.773438 571.515625 205.519531 574.101562 205.621094 577.394531 C 205.707031 580.339844 203.636719 582.851562 200.835938 583.414062 Z M 697.578125 487.511719 C 695.496094 487.929688 693.25 487.210938 691.800781 485.453125 C 689.714844 482.917969 690.078125 479.15625 692.613281 477.0625 C 701.082031 470.089844 709.128906 462.476562 716.523438 454.4375 C 718.757812 452.019531 722.53125 451.859375 724.949219 454.089844 C 727.375 456.320312 727.523438 460.089844 725.300781 462.515625 C 717.527344 470.953125 709.082031 478.945312 700.195312 486.265625 C 699.414062 486.910156 698.511719 487.324219 697.578125 487.511719 Z M 367.003906 557.671875 C 364.398438 558.195312 361.667969 556.910156 360.464844 554.40625 C 359.042969 551.433594 360.296875 547.871094 363.261719 546.453125 C 366.960938 544.683594 370.464844 542.703125 373.671875 540.570312 C 376.183594 538.910156 380.304688 535.152344 385.746094 526.667969 C 387.515625 523.894531 391.207031 523.085938 393.976562 524.867188 C 396.746094 526.644531 397.558594 530.324219 395.78125 533.101562 C 390.519531 541.316406 385.296875 547.167969 380.261719 550.507812 C 376.59375 552.941406 372.613281 555.1875 368.421875 557.199219 C 367.960938 557.421875 367.480469 557.578125 367.003906 557.671875 Z M 268.203125 578.417969 C 268.042969 578.449219 267.875 578.476562 267.714844 578.492188 C 256.265625 579.820312 244.871094 580.910156 233.84375 581.738281 C 230.558594 581.980469 227.695312 579.523438 227.445312 576.238281 C 227.203125 572.957031 229.671875 570.09375 232.945312 569.84375 C 243.820312 569.03125 255.054688 567.957031 266.339844 566.648438 C 269.613281 566.273438 272.570312 568.613281 272.945312 571.886719 C 273.308594 574.988281 271.210938 577.816406 268.203125 578.417969 Z M 330.402344 569.046875 C 326.59375 569.808594 322.464844 570.558594 317.421875 571.410156 C 312.085938 572.304688 306.699219 573.171875 301.414062 573.972656 C 298.160156 574.464844 295.117188 572.230469 294.621094 568.972656 C 294.128906 565.71875 296.394531 562.640625 299.621094 562.183594 C 304.847656 561.390625 310.175781 560.535156 315.445312 559.648438 C 320.367188 558.824219 324.382812 558.09375 328.0625 557.359375 C 329.554688 557.0625 331.03125 556.75 332.515625 556.421875 C 332.554688 556.414062 332.582031 556.410156 332.617188 556.402344 C 335.800781 555.765625 338.914062 557.796875 339.613281 560.976562 C 340.316406 564.199219 338.273438 567.375 335.058594 568.078125 C 333.507812 568.410156 331.957031 568.738281 330.402344 569.046875 Z M 475.464844 545.640625 C 474.769531 545.777344 474.042969 545.796875 473.3125 545.671875 C 461.816406 543.734375 450.5 541.035156 439.6875 537.628906 C 436.542969 536.640625 434.796875 533.296875 435.785156 530.15625 C 436.769531 527.019531 440.117188 525.265625 443.257812 526.253906 C 453.558594 529.492188 464.332031 532.070312 475.285156 533.910156 C 478.53125 534.457031 480.71875 537.53125 480.179688 540.777344 C 479.757812 543.292969 477.824219 545.167969 475.464844 545.640625 Z M 640.429688 523.171875 C 637.773438 523.703125 635.015625 522.367188 633.84375 519.808594 C 632.46875 516.8125 633.785156 513.277344 636.773438 511.902344 C 646.898438 507.269531 656.675781 502.019531 665.851562 496.292969 C 668.640625 494.554688 672.324219 495.40625 674.0625 498.195312 C 675.808594 500.992188 674.949219 504.667969 672.164062 506.414062 C 662.554688 512.398438 652.320312 517.898438 641.742188 522.742188 C 641.316406 522.941406 640.871094 523.085938 640.429688 523.171875 Z M 542.804688 548.414062 C 542.574219 548.460938 542.339844 548.492188 542.101562 548.507812 C 530.597656 549.425781 519 549.660156 507.640625 549.210938 C 504.347656 549.070312 501.785156 546.304688 501.917969 543.011719 C 502.054688 539.71875 504.816406 537.167969 508.113281 537.289062 C 519.003906 537.730469 530.125 537.507812 541.15625 536.625 C 544.4375 536.367188 547.3125 538.816406 547.578125 542.097656 C 547.816406 545.140625 545.730469 547.828125 542.804688 548.414062 Z M 576.984375 543.648438 L 576.226562 543.796875 C 572.996094 544.429688 569.867188 542.324219 569.234375 539.09375 C 568.597656 535.875 570.695312 532.746094 573.914062 532.105469 C 573.921875 532.101562 573.929688 532.101562 573.9375 532.097656 L 574.644531 531.957031 C 585.214844 529.84375 595.75 527.113281 605.957031 523.835938 C 609.089844 522.835938 612.445312 524.5625 613.453125 527.695312 C 614.457031 530.832031 612.730469 534.1875 609.597656 535.191406 C 598.964844 538.605469 587.992188 541.445312 576.984375 543.648438 "/></g></g></g><g clip-rule="nonzero" clip-path="url(#44e5fa104a)"><g clip-rule="nonzero" clip-path="url(#34786e539b)"><g clip-rule="nonzero" clip-path="url(#e663f2fd02)"><path style=" stroke:none;fill-rule:nonzero;fill:#b6d9c4;fill-opacity:1;" d="M 942.871094 95.503906 L 917.476562 150.351562 C 915.355469 154.914062 908.726562 154.457031 907.269531 149.640625 L 899.070312 122.648438 C 898.734375 121.527344 898.039062 120.539062 897.09375 119.839844 L 874.445312 103.027344 C 870.40625 100.027344 872.203125 93.628906 877.214844 93.175781 L 937.414062 87.746094 C 941.613281 87.375 944.640625 91.679688 942.871094 95.503906 "/></g></g></g><g style="fill:#000000;fill-opacity:1;"><g transform="translate(122.553691, 394.427557)"><path style="stroke:none" d="M 19.796875 -55.90625 C 21.648438 -48.769531 23.601562 -41.515625 25.65625 -34.140625 C 27.707031 -26.773438 29.554688 -19.351562 31.203125 -11.875 C 32.503906 -6.851562 33.539062 -1.765625 34.3125 3.390625 C 35.09375 8.554688 35.566406 13.65625 35.734375 18.6875 C 37.117188 25.101562 35.035156 29.03125 29.484375 30.46875 C 24.453125 31.769531 20.585938 29.382812 17.890625 23.3125 C 14.734375 17.632812 12.367188 11.753906 10.796875 5.671875 C 2.523438 -24.078125 -4.984375 -53.878906 -11.734375 -83.734375 C -18.484375 -113.585938 -24.5 -143.640625 -29.78125 -173.890625 C -31.644531 -183.273438 -33.25 -192.734375 -34.59375 -202.265625 C -35.945312 -211.796875 -37.382812 -221.15625 -38.90625 -230.34375 C -39.601562 -235.238281 -39.554688 -239.972656 -38.765625 -244.546875 C -37.972656 -249.128906 -36.707031 -253.484375 -34.96875 -257.609375 C -34.632812 -258.546875 -34.191406 -259.582031 -33.640625 -260.71875 C -33.097656 -261.851562 -32.363281 -262.816406 -31.4375 -263.609375 C -25.789062 -269.023438 -19.796875 -273.117188 -13.453125 -275.890625 C -7.109375 -278.660156 -0.0546875 -279.78125 7.703125 -279.25 C 24.597656 -278.257812 39.097656 -271.289062 51.203125 -258.34375 C 65.773438 -242.363281 75.410156 -223.695312 80.109375 -202.34375 C 85.804688 -178.125 85.445312 -155.519531 79.03125 -134.53125 C 72.613281 -113.539062 61.265625 -94.171875 44.984375 -76.421875 C 41.691406 -72.734375 37.835938 -69.332031 33.421875 -66.21875 C 29.015625 -63.101562 24.472656 -59.664062 19.796875 -55.90625 Z M 22.234375 -85.765625 C 23.742188 -87.566406 25.125 -89.050781 26.375 -90.21875 C 27.625 -91.382812 29.035156 -92.738281 30.609375 -94.28125 C 32.117188 -96.082031 33.5625 -97.863281 34.9375 -99.625 C 36.3125 -101.394531 37.789062 -103.046875 39.375 -104.578125 C 55.03125 -126.984375 62.335938 -150.253906 61.296875 -174.390625 C 60.265625 -198.535156 51.710938 -220.941406 35.640625 -241.609375 C 28.941406 -250.035156 20.210938 -255.675781 9.453125 -258.53125 C -1.296875 -261.394531 -12.769531 -258.566406 -24.96875 -250.046875 C -18.570312 -223.203125 -12.191406 -196.140625 -5.828125 -168.859375 C 0.523438 -141.585938 6.925781 -114.394531 13.375 -87.28125 C 14.84375 -87.09375 16.238281 -86.882812 17.5625 -86.65625 C 18.882812 -86.4375 20.441406 -86.140625 22.234375 -85.765625 Z M 22.234375 -85.765625 "/></g></g><g style="fill:#000000;fill-opacity:1;"><g transform="translate(241.225368, 363.655922)"><path style="stroke:none" d="M 31.515625 3.046875 C 37.722656 1.960938 43.578125 0.707031 49.078125 -0.71875 C 54.578125 -2.15625 60.03125 -3.378906 65.4375 -4.390625 C 69.738281 -5.316406 73.984375 -6.160156 78.171875 -6.921875 C 82.359375 -7.691406 86.609375 -8.40625 90.921875 -9.0625 C 91.992188 -9.425781 93.492188 -9.554688 95.421875 -9.453125 C 100.328125 -9.878906 102.957031 -8.046875 103.3125 -3.953125 C 103.945312 0.367188 101.703125 3.03125 96.578125 4.03125 C 88.234375 5.851562 79.734375 7.40625 71.078125 8.6875 C 63.546875 10.425781 55.800781 12.050781 47.84375 13.5625 C 39.882812 15.070312 32.003906 16.707031 24.203125 18.46875 C 23.390625 18.539062 22.640625 18.601562 21.953125 18.65625 C 21.273438 18.71875 20.394531 18.796875 19.3125 18.890625 C 14.582031 18.210938 12.566406 15.515625 13.265625 10.796875 C 13.421875 9.398438 13.582031 8.078125 13.75 6.828125 C 13.914062 5.585938 13.679688 4.441406 13.046875 3.390625 C 11.398438 -9.347656 9.503906 -21.789062 7.359375 -33.9375 C 5.222656 -46.09375 3.335938 -58.410156 1.703125 -70.890625 C -2.179688 -100.160156 -4.769531 -129.476562 -6.0625 -158.84375 C -7.351562 -188.21875 -8.988281 -217.625 -10.96875 -247.0625 C -11.175781 -249.507812 -11.253906 -251.96875 -11.203125 -254.4375 C -11.148438 -256.914062 -11.066406 -259.117188 -10.953125 -261.046875 C -10.566406 -263.003906 -10.03125 -264.765625 -9.34375 -266.328125 C -8.65625 -267.898438 -7.359375 -268.769531 -5.453125 -268.9375 C -3.273438 -269.125 -1.59375 -268.648438 -0.40625 -267.515625 C 0.78125 -266.378906 1.597656 -264.867188 2.046875 -262.984375 C 3.328125 -257.617188 4.613281 -252.179688 5.90625 -246.671875 C 7.207031 -241.160156 8.09375 -235.679688 8.5625 -230.234375 C 11.03125 -207.972656 13.425781 -185.695312 15.75 -163.40625 C 18.082031 -141.125 20.359375 -118.703125 22.578125 -96.140625 C 23.890625 -80.890625 25.210938 -65.503906 26.546875 -49.984375 C 27.878906 -34.472656 29.226562 -18.828125 30.59375 -3.046875 C 30.65625 -2.234375 30.796875 -1.351562 31.015625 -0.40625 C 31.234375 0.53125 31.398438 1.679688 31.515625 3.046875 Z M 31.515625 3.046875 "/></g></g><g style="fill:#000000;fill-opacity:1;"><g transform="translate(340.472156, 352.116711)"><path style="stroke:none" d="M 9.25 23.9375 C 6.875 22.882812 5.421875 20.820312 4.890625 17.75 C 4.359375 14.675781 4.394531 11.382812 5 7.875 C 5.613281 4.363281 6.175781 1.398438 6.6875 -1.015625 C 10.820312 -12.691406 15.015625 -24.296875 19.265625 -35.828125 C 23.515625 -47.367188 27.96875 -58.8125 32.625 -70.15625 C 42.269531 -93.65625 51.25 -117.359375 59.5625 -141.265625 C 67.882812 -165.171875 76.203125 -189.078125 84.515625 -212.984375 C 86.472656 -219.109375 88.898438 -225.117188 91.796875 -231.015625 C 94.691406 -236.921875 97.515625 -242.757812 100.265625 -248.53125 C 101.929688 -251.65625 103.957031 -254.203125 106.34375 -256.171875 C 108.726562 -258.148438 111.691406 -258.96875 115.234375 -258.625 C 121.753906 -258 125.675781 -253.101562 127 -243.9375 C 127.800781 -238.09375 128.34375 -232.34375 128.625 -226.6875 C 128.914062 -221.03125 129.320312 -215.160156 129.84375 -209.078125 C 131.375 -184.785156 132.828125 -160.429688 134.203125 -136.015625 C 135.578125 -111.597656 136.878906 -87.117188 138.109375 -62.578125 C 138.171875 -60.367188 138.210938 -56.519531 138.234375 -51.03125 C 138.265625 -45.539062 138.367188 -39.425781 138.546875 -32.6875 C 138.734375 -25.945312 138.835938 -19.828125 138.859375 -14.328125 C 138.878906 -8.835938 138.921875 -4.992188 138.984375 -2.796875 C 139.253906 0.242188 139.492188 4.242188 139.703125 9.203125 C 139.910156 14.171875 140.039062 19.257812 140.09375 24.46875 C 139.882812 26.644531 139.316406 28.992188 138.390625 31.515625 C 137.460938 34.035156 135.484375 35.425781 132.453125 35.6875 C 128.316406 35.832031 125.566406 33.644531 124.203125 29.125 C 122.847656 24.613281 122.046875 20.832031 121.796875 17.78125 C 121.847656 17.238281 121.769531 16.613281 121.5625 15.90625 C 121.351562 15.207031 121.273438 14.582031 121.328125 14.03125 C 120.929688 6.582031 120.445312 -1.28125 119.875 -9.5625 C 119.65625 -10.132812 119.585938 -10.894531 119.671875 -11.84375 C 119.765625 -12.800781 119.59375 -13.84375 119.15625 -14.96875 C 105.832031 -16.238281 92.546875 -17.234375 79.296875 -17.953125 C 66.054688 -18.671875 52.753906 -20.90625 39.390625 -24.65625 C 39.015625 -23.582031 38.492188 -22.457031 37.828125 -21.28125 C 37.171875 -20.113281 36.65625 -19.003906 36.28125 -17.953125 C 34.78125 -13.703125 33.28125 -9.519531 31.78125 -5.40625 C 30.289062 -1.289062 28.941406 2.898438 27.734375 7.171875 C 27.734375 7.171875 26.960938 8.742188 25.421875 11.890625 C 23.890625 15.035156 21.75 18.054688 19 20.953125 C 16.25 23.847656 13 24.84375 9.25 23.9375 Z M 46.203125 -44.171875 C 45.847656 -43.378906 45.554688 -42.507812 45.328125 -41.5625 C 45.109375 -40.625 44.929688 -39.476562 44.796875 -38.125 C 57.035156 -36.957031 69.269531 -35.789062 81.5 -34.625 C 93.738281 -33.457031 106.25 -32.265625 119.03125 -31.046875 C 117.582031 -61.921875 115.914062 -92.609375 114.03125 -123.109375 C 112.144531 -153.617188 110.175781 -184.0625 108.125 -214.4375 C 106.382812 -213.507812 105.503906 -212.910156 105.484375 -212.640625 C 105.117188 -211.566406 104.597656 -210.375 103.921875 -209.0625 C 103.242188 -207.757812 102.703125 -206.445312 102.296875 -205.125 C 93.691406 -178.21875 84.867188 -151.195312 75.828125 -124.0625 C 66.796875 -96.9375 56.921875 -70.304688 46.203125 -44.171875 Z M 46.203125 -44.171875 "/></g></g><g style="fill:#000000;fill-opacity:1;"><g transform="translate(480.025993, 364.541025)"><path style="stroke:none" d="M 133.15625 -46.984375 C 135.601562 -53.109375 137.941406 -59.113281 140.171875 -65 C 142.410156 -70.882812 144.539062 -76.65625 146.5625 -82.3125 C 153.550781 -101.320312 160.359375 -120.457031 166.984375 -139.71875 C 173.609375 -158.976562 180.273438 -178.144531 186.984375 -197.21875 C 187.546875 -199.050781 188.253906 -200.90625 189.109375 -202.78125 C 189.972656 -204.664062 190.859375 -206.613281 191.765625 -208.625 C 193.847656 -211.695312 196.585938 -212.710938 199.984375 -211.671875 C 203.640625 -210.546875 205.472656 -208.128906 205.484375 -204.421875 C 205.273438 -201.898438 205.070312 -199.382812 204.875 -196.875 C 204.6875 -194.363281 204.148438 -191.664062 203.265625 -188.78125 C 199.585938 -175.914062 195.921875 -162.828125 192.265625 -149.515625 C 188.617188 -136.210938 184.617188 -122.941406 180.265625 -109.703125 C 175.828125 -96.203125 171.289062 -82.585938 166.65625 -68.859375 C 162.019531 -55.140625 156.96875 -41.695312 151.5 -28.53125 C 146.757812 -16.820312 140.550781 -6.144531 132.875 3.5 C 125.195312 13.144531 115.476562 21.300781 103.71875 27.96875 C 90.84375 35.445312 77.585938 37.671875 63.953125 34.640625 C 57.078125 32.804688 50.203125 30.976562 43.328125 29.15625 C 36.460938 27.34375 29.632812 25.394531 22.84375 23.3125 C 19.96875 22.425781 17.28125 21.171875 14.78125 19.546875 C 12.289062 17.921875 9.6875 16.40625 6.96875 15 C 2.925781 12.332031 1.582031 8.78125 2.9375 4.34375 C 4.144531 0.414062 7.210938 -1.644531 12.140625 -1.84375 C 14.722656 -1.914062 17.320312 -1.550781 19.9375 -0.75 C 35.0625 3.050781 49.675781 7.113281 63.78125 11.4375 C 75.25 14.09375 85.582031 12.546875 94.78125 6.796875 C 101.9375 2.140625 107.960938 -3.289062 112.859375 -9.5 C 117.765625 -15.71875 122.207031 -22.5 126.1875 -29.84375 C 125.132812 -30.164062 124.085938 -30.488281 123.046875 -30.8125 C 122.003906 -31.132812 121.222656 -31.375 120.703125 -31.53125 C 106.660156 -33.269531 94.101562 -37.984375 83.03125 -45.671875 C 71.957031 -53.359375 63.410156 -62.984375 57.390625 -74.546875 C 51.367188 -86.109375 48.757812 -98.335938 49.5625 -111.234375 C 50.101562 -121.359375 51.46875 -131.367188 53.65625 -141.265625 C 55.84375 -151.171875 58.148438 -161.039062 60.578125 -170.875 C 63.046875 -179.832031 65.617188 -188.6875 68.296875 -197.4375 C 70.984375 -206.1875 73.691406 -215 76.421875 -223.875 C 77.304688 -226.75 78.472656 -229.609375 79.921875 -232.453125 C 81.367188 -235.296875 82.785156 -238.070312 84.171875 -240.78125 C 85.828125 -244.28125 88.484375 -245.46875 92.140625 -244.34375 C 93.972656 -243.78125 95.144531 -242.703125 95.65625 -241.109375 C 96.164062 -239.523438 96.347656 -238.039062 96.203125 -236.65625 C 95.367188 -232.0625 94.578125 -227.378906 93.828125 -222.609375 C 93.078125 -217.835938 92.148438 -213.191406 91.046875 -208.671875 C 87.742188 -195.109375 84.550781 -181.441406 81.46875 -167.671875 C 78.394531 -153.898438 75.375 -140.328125 72.40625 -126.953125 C 71.625 -123.472656 71.101562 -119.914062 70.84375 -116.28125 C 70.582031 -112.644531 70.359375 -109.140625 70.171875 -105.765625 C 70.304688 -96.867188 72.582031 -88.457031 77 -80.53125 C 81.425781 -72.601562 87.421875 -65.832031 94.984375 -60.21875 C 102.554688 -54.613281 110.8125 -51.003906 119.75 -49.390625 C 121.914062 -49.023438 124.085938 -48.648438 126.265625 -48.265625 C 128.441406 -47.878906 130.738281 -47.453125 133.15625 -46.984375 Z M 133.15625 -46.984375 "/></g></g><g style="fill:#000000;fill-opacity:1;"><g transform="translate(605.755074, 402.821477)"><path style="stroke:none" d=""/></g></g><g style="fill:#000000;fill-opacity:1;"><g transform="translate(536.272442, 623.992393)"><path style="stroke:none" d="M 143.28125 -82.65625 C 144.800781 -81.882812 145.847656 -80.738281 146.421875 -79.21875 C 146.992188 -77.695312 146.804688 -76.171875 145.859375 -74.640625 C 145.085938 -72.734375 143.175781 -68.921875 140.125 -63.203125 C 137.082031 -57.484375 133.222656 -50.757812 128.546875 -43.03125 C 123.878906 -35.3125 118.585938 -27.351562 112.671875 -19.15625 C 106.765625 -10.957031 100.519531 -3.378906 93.9375 3.578125 C 87.363281 10.535156 80.597656 16.109375 73.640625 20.296875 C 66.679688 24.492188 59.863281 26.304688 53.1875 25.734375 C 49.570312 26.117188 45.1875 25.070312 40.03125 22.59375 C 34.882812 20.113281 29.691406 15.867188 24.453125 9.859375 C 19.210938 3.859375 14.539062 -4.097656 10.4375 -14.015625 C 6.34375 -23.929688 3.335938 -36.179688 1.421875 -50.765625 C -0.484375 -65.347656 -0.578125 -82.550781 1.140625 -102.375 C 2.472656 -118.96875 5.046875 -132.742188 8.859375 -143.703125 C 12.671875 -154.671875 17.148438 -163.347656 22.296875 -169.734375 C 27.453125 -176.117188 32.742188 -180.929688 38.171875 -184.171875 C 43.609375 -187.410156 48.660156 -189.457031 53.328125 -190.3125 C 58.003906 -191.175781 61.769531 -191.5625 64.625 -191.46875 C 67.488281 -191.375 68.921875 -191.328125 68.921875 -191.328125 C 71.972656 -191.128906 74.972656 -190.269531 77.921875 -188.75 C 80.878906 -187.226562 83.597656 -184.941406 86.078125 -181.890625 C 90.273438 -177.503906 93.613281 -172.453125 96.09375 -166.734375 C 96.09375 -166.734375 96.09375 -166.679688 96.09375 -166.578125 C 96.09375 -166.484375 96.09375 -166.4375 96.09375 -166.4375 C 97.238281 -164.34375 98.191406 -162.148438 98.953125 -159.859375 C 99.328125 -158.523438 99.46875 -157.09375 99.375 -155.5625 C 99.28125 -154.039062 98.757812 -153.09375 97.8125 -152.71875 C 96.28125 -151.957031 94.703125 -152.144531 93.078125 -153.28125 C 91.460938 -154.425781 90.128906 -155.757812 89.078125 -157.28125 C 88.035156 -158.8125 87.515625 -159.578125 87.515625 -159.578125 C 86.753906 -160.535156 85.988281 -161.632812 85.21875 -162.875 C 84.457031 -164.113281 83.789062 -165.398438 83.21875 -166.734375 C 79.59375 -172.253906 75.726562 -175.726562 71.625 -177.15625 C 67.53125 -178.59375 62.335938 -178.265625 56.046875 -176.171875 C 42.128906 -171.585938 32.125 -161.765625 26.03125 -146.703125 L 24.015625 -140.984375 C 19.828125 -128.972656 17.253906 -114.960938 16.296875 -98.953125 C 16.109375 -95.710938 15.96875 -91.707031 15.875 -86.9375 C 15.78125 -82.175781 15.734375 -77.984375 15.734375 -74.359375 C 15.734375 -70.734375 15.734375 -68.921875 15.734375 -68.921875 C 16.304688 -61.867188 17.398438 -54.050781 19.015625 -45.46875 C 20.640625 -36.894531 22.785156 -28.601562 25.453125 -20.59375 C 28.117188 -12.582031 31.550781 -5.578125 35.75 0.421875 C 39.945312 6.429688 44.90625 10.484375 50.625 12.578125 C 55.382812 14.296875 60.671875 13.535156 66.484375 10.296875 C 72.304688 7.054688 78.363281 2.148438 84.65625 -4.421875 C 90.945312 -11.003906 97.1875 -18.632812 103.375 -27.3125 C 109.570312 -35.988281 115.335938 -44.898438 120.671875 -54.046875 C 126.015625 -63.203125 130.691406 -71.785156 134.703125 -79.796875 C 135.648438 -81.503906 136.929688 -82.597656 138.546875 -83.078125 C 140.171875 -83.554688 141.75 -83.414062 143.28125 -82.65625 Z M 143.28125 -82.65625 "/></g></g><g style="fill:#000000;fill-opacity:1;"><g transform="translate(670.679695, 623.992393)"><path style="stroke:none" d="M 129.265625 -85.21875 C 130.785156 -84.644531 131.878906 -83.546875 132.546875 -81.921875 C 133.210938 -80.304688 133.070312 -78.738281 132.125 -77.21875 C 132.125 -77.03125 130.882812 -74.644531 128.40625 -70.0625 C 125.925781 -65.488281 122.253906 -60.054688 117.390625 -53.765625 C 112.535156 -47.472656 106.4375 -41.414062 99.09375 -35.59375 C 91.75 -29.78125 83.21875 -25.445312 73.5 -22.59375 C 73.113281 -21.632812 72.679688 -20.628906 72.203125 -19.578125 C 71.734375 -18.535156 71.304688 -17.539062 70.921875 -16.59375 C 69.015625 -12.78125 66.960938 -9.0625 64.765625 -5.4375 C 62.578125 -1.8125 60.34375 1.710938 58.0625 5.140625 C 56.53125 7.242188 54.710938 9.148438 52.609375 10.859375 C 50.515625 12.578125 48.421875 14.101562 46.328125 15.4375 C 43.847656 17.34375 41.222656 18.25 38.453125 18.15625 C 35.691406 18.0625 32.882812 17.347656 30.03125 16.015625 C 19.351562 9.910156 13.347656 0.851562 12.015625 -11.15625 C 11.816406 -15.34375 11.816406 -19.441406 12.015625 -23.453125 C 12.015625 -24.785156 11.867188 -25.878906 11.578125 -26.734375 C 11.296875 -27.597656 10.582031 -28.410156 9.4375 -29.171875 C 8.476562 -30.117188 7.570312 -31.019531 6.71875 -31.875 C 5.863281 -32.738281 4.957031 -33.550781 4 -34.3125 C -1.332031 -39.46875 -4.757812 -45.191406 -6.28125 -51.484375 C -7.8125 -57.773438 -7.71875 -64.445312 -6 -71.5 C -3.332031 -81.601562 1.71875 -90.085938 9.15625 -96.953125 C 15.25 -103.046875 22.0625 -106.804688 29.59375 -108.234375 C 37.125 -109.671875 44.894531 -109.054688 52.90625 -106.390625 C 60.71875 -103.523438 66.769531 -99.1875 71.0625 -93.375 C 75.351562 -87.5625 77.976562 -80.554688 78.9375 -72.359375 C 79.3125 -67.972656 79.59375 -63.488281 79.78125 -58.90625 C 79.976562 -54.332031 79.695312 -49.851562 78.9375 -45.46875 C 78.738281 -44.132812 78.546875 -42.800781 78.359375 -41.46875 C 78.171875 -40.132812 77.976562 -38.703125 77.78125 -37.171875 C 81.21875 -38.703125 84.554688 -40.5625 87.796875 -42.75 C 91.035156 -44.945312 94.273438 -47.378906 97.515625 -50.046875 C 102.671875 -54.816406 107.007812 -59.675781 110.53125 -64.625 C 114.0625 -69.582031 116.679688 -73.726562 118.390625 -77.0625 C 120.109375 -80.40625 120.96875 -82.171875 120.96875 -82.359375 C 121.726562 -83.890625 122.921875 -84.941406 124.546875 -85.515625 C 126.171875 -86.085938 127.742188 -85.988281 129.265625 -85.21875 Z M 50.328125 -92.65625 C 45.566406 -83.882812 41.375 -75.019531 37.75 -66.0625 C 34.125 -57.101562 31.265625 -47.664062 29.171875 -37.75 C 40.992188 -33.363281 52.050781 -31.929688 62.34375 -33.453125 C 62.53125 -34.410156 62.71875 -35.125 62.90625 -35.59375 C 63.101562 -36.070312 63.203125 -36.3125 63.203125 -36.3125 C 64.921875 -42.988281 65.828125 -49.757812 65.921875 -56.625 C 66.015625 -63.488281 65.203125 -70.160156 63.484375 -76.640625 C 62.722656 -80.453125 61.242188 -83.597656 59.046875 -86.078125 C 56.859375 -88.554688 53.953125 -90.75 50.328125 -92.65625 Z M 7.71875 -53.484375 C 8.476562 -51.765625 9.429688 -50.1875 10.578125 -48.75 C 11.722656 -47.320312 13.25 -45.941406 15.15625 -44.609375 C 17.25 -53.765625 20.0625 -62.535156 23.59375 -70.921875 C 27.125 -79.304688 31.554688 -87.21875 36.890625 -94.65625 C 36.128906 -95.039062 35.175781 -95.234375 34.03125 -95.234375 C 29.070312 -94.472656 24.351562 -92.132812 19.875 -88.21875 C 15.394531 -84.3125 11.914062 -79.6875 9.4375 -74.34375 C 6.957031 -69.007812 6.003906 -63.769531 6.578125 -58.625 C 6.765625 -57.863281 6.90625 -57.050781 7 -56.1875 C 7.101562 -55.332031 7.34375 -54.429688 7.71875 -53.484375 Z M 56.34375 -18.015625 C 56.53125 -18.398438 56.71875 -18.828125 56.90625 -19.296875 C 57.101562 -19.773438 57.296875 -20.207031 57.484375 -20.59375 C 57.097656 -20.59375 56.664062 -20.492188 56.1875 -20.296875 C 55.71875 -20.109375 55.289062 -20.015625 54.90625 -20.015625 C 46.132812 -20.015625 36.890625 -21.734375 27.171875 -25.171875 C 26.972656 -23.453125 26.828125 -22.113281 26.734375 -21.15625 C 26.640625 -20.207031 26.59375 -19.734375 26.59375 -19.734375 C 26.59375 -15.535156 27.117188 -11.578125 28.171875 -7.859375 C 29.222656 -4.140625 31.460938 -0.945312 34.890625 1.71875 C 36.609375 3.050781 37.941406 3.71875 38.890625 3.71875 C 39.847656 3.71875 41.085938 3.050781 42.609375 1.71875 C 45.660156 -0.945312 48.28125 -3.992188 50.46875 -7.421875 C 52.664062 -10.859375 54.625 -14.390625 56.34375 -18.015625 Z M 56.34375 -18.015625 "/></g></g><g style="fill:#000000;fill-opacity:1;"><g transform="translate(791.646234, 623.992393)"><path style="stroke:none" d="M 184.75 -85.21875 C 186.457031 -84.644531 187.644531 -83.597656 188.3125 -82.078125 C 188.988281 -80.554688 189.132812 -79.03125 188.75 -77.5 C 187.226562 -73.5 185.367188 -68.351562 183.171875 -62.0625 C 180.984375 -55.769531 178.457031 -49.191406 175.59375 -42.328125 C 172.726562 -35.460938 169.582031 -29.117188 166.15625 -23.296875 C 162.726562 -17.484375 159.054688 -12.910156 155.140625 -9.578125 C 151.234375 -6.242188 147.085938 -5.148438 142.703125 -6.296875 C 138.703125 -7.429688 135.695312 -10.664062 133.6875 -16 C 131.6875 -21.34375 130.398438 -27.78125 129.828125 -35.3125 C 129.265625 -42.84375 129.03125 -50.46875 129.125 -58.1875 C 129.21875 -65.914062 129.5 -72.78125 129.96875 -78.78125 C 130.445312 -84.789062 130.6875 -88.84375 130.6875 -90.9375 C 130.6875 -91.507812 130.640625 -92.082031 130.546875 -92.65625 C 130.453125 -93.226562 130.40625 -94.085938 130.40625 -95.234375 C 129.257812 -94.085938 128.257812 -93.082031 127.40625 -92.21875 C 126.550781 -91.363281 125.644531 -90.460938 124.6875 -89.515625 C 118.207031 -81.503906 113.25 -72.828125 109.8125 -63.484375 C 108.289062 -59.296875 106.863281 -55.101562 105.53125 -50.90625 C 104.195312 -46.707031 102.765625 -42.609375 101.234375 -38.609375 C 100.472656 -37.078125 99.710938 -35.5 98.953125 -33.875 C 98.191406 -32.257812 97.332031 -30.691406 96.375 -29.171875 C 94.28125 -25.929688 91.609375 -24.117188 88.359375 -23.734375 C 85.117188 -23.359375 81.976562 -24.40625 78.9375 -26.875 C 75.125 -30.125 72.359375 -34.414062 70.640625 -39.75 C 68.546875 -45.28125 67.066406 -50.90625 66.203125 -56.625 C 65.347656 -62.34375 64.726562 -68.15625 64.34375 -74.0625 C 63.769531 -79.019531 63.484375 -83.882812 63.484375 -88.65625 C 63.109375 -88.65625 62.773438 -88.65625 62.484375 -88.65625 C 62.203125 -88.65625 61.960938 -88.65625 61.765625 -88.65625 C 61.003906 -86.9375 60.195312 -85.21875 59.34375 -83.5 C 58.488281 -81.789062 57.582031 -79.984375 56.625 -78.078125 C 51.664062 -67.015625 47.519531 -55.8125 44.1875 -44.46875 C 40.851562 -33.125 37.945312 -21.539062 35.46875 -9.71875 C 35.082031 -7.4375 34.507812 -5.054688 33.75 -2.578125 C 32.601562 0.472656 30.503906 2.191406 27.453125 2.578125 C 23.640625 3.148438 20.875 1.71875 19.15625 -1.71875 C 18.394531 -3.238281 17.679688 -4.804688 17.015625 -6.421875 C 16.347656 -8.046875 15.820312 -9.71875 15.4375 -11.4375 C 13.726562 -18.6875 12.0625 -25.929688 10.4375 -33.171875 C 8.8125 -40.421875 7.144531 -47.664062 5.4375 -54.90625 C 4.101562 -61.582031 2.816406 -68.253906 1.578125 -74.921875 C 0.335938 -81.597656 -0.945312 -88.175781 -2.28125 -94.65625 C -2.28125 -95.613281 -2.328125 -96.519531 -2.421875 -97.375 C -2.523438 -98.238281 -2.578125 -99.050781 -2.578125 -99.8125 C -2.378906 -102.476562 -1.28125 -104.332031 0.71875 -105.375 C 2.71875 -106.425781 4.765625 -106.285156 6.859375 -104.953125 C 7.816406 -104.378906 8.722656 -103.710938 9.578125 -102.953125 C 10.441406 -102.191406 11.253906 -101.332031 12.015625 -100.375 C 13.921875 -97.519531 15.441406 -94.472656 16.578125 -91.234375 C 17.722656 -87.992188 18.582031 -84.75 19.15625 -81.5 C 20.488281 -74.632812 21.773438 -67.675781 23.015625 -60.625 C 24.253906 -53.570312 25.539062 -46.613281 26.875 -39.75 C 26.875 -39.175781 27.015625 -38.507812 27.296875 -37.75 C 27.585938 -36.988281 27.925781 -35.941406 28.3125 -34.609375 C 28.695312 -35.941406 29.078125 -37.082031 29.453125 -38.03125 C 29.835938 -38.988281 30.125 -39.847656 30.3125 -40.609375 C 32.976562 -48.992188 35.835938 -57.332031 38.890625 -65.625 C 41.941406 -73.925781 45.566406 -81.890625 49.765625 -89.515625 C 51.285156 -92.367188 52.851562 -95.175781 54.46875 -97.9375 C 56.09375 -100.707031 57.765625 -103.332031 59.484375 -105.8125 C 60.628906 -107.53125 61.960938 -108.910156 63.484375 -109.953125 C 65.015625 -111.003906 66.828125 -111.34375 68.921875 -110.96875 C 72.734375 -110.195312 75.304688 -107.617188 76.640625 -103.234375 C 77.023438 -100.753906 77.503906 -98.226562 78.078125 -95.65625 C 78.648438 -93.082031 79.03125 -90.460938 79.21875 -87.796875 C 79.976562 -82.648438 80.597656 -77.453125 81.078125 -72.203125 C 81.554688 -66.960938 82.082031 -61.769531 82.65625 -56.625 C 83.03125 -54.144531 83.597656 -51.757812 84.359375 -49.46875 C 85.128906 -47.1875 85.894531 -44.804688 86.65625 -42.328125 C 86.84375 -42.328125 87.03125 -42.328125 87.21875 -42.328125 C 87.414062 -42.328125 87.609375 -42.328125 87.796875 -42.328125 C 88.179688 -43.472656 88.65625 -44.519531 89.21875 -45.46875 C 89.789062 -46.425781 90.175781 -47.285156 90.375 -48.046875 C 92.46875 -52.046875 94.320312 -56.09375 95.9375 -60.1875 C 97.5625 -64.289062 99.328125 -68.25 101.234375 -72.0625 C 103.910156 -78.550781 107.390625 -84.460938 111.671875 -89.796875 C 115.960938 -95.140625 120.78125 -100.097656 126.125 -104.671875 C 126.695312 -105.054688 127.363281 -105.53125 128.125 -106.09375 C 128.882812 -106.664062 129.644531 -107.144531 130.40625 -107.53125 C 132.5 -108.863281 134.691406 -109.289062 136.984375 -108.8125 C 139.273438 -108.34375 140.894531 -106.960938 141.84375 -104.671875 C 142.414062 -103.523438 142.796875 -100.664062 142.984375 -96.09375 C 143.179688 -91.519531 143.226562 -85.988281 143.125 -79.5 C 143.03125 -73.019531 142.984375 -66.300781 142.984375 -59.34375 C 142.984375 -52.382812 143.03125 -45.851562 143.125 -39.75 C 143.226562 -33.644531 143.515625 -28.640625 143.984375 -24.734375 C 144.460938 -20.828125 145.179688 -18.875 146.140625 -18.875 C 148.421875 -18.6875 150.847656 -20.546875 153.421875 -24.453125 C 156.003906 -28.359375 158.582031 -33.503906 161.15625 -39.890625 C 163.726562 -46.273438 166.347656 -53.1875 169.015625 -60.625 C 171.679688 -68.0625 174.253906 -75.117188 176.734375 -81.796875 C 177.304688 -83.316406 178.453125 -84.457031 180.171875 -85.21875 C 181.890625 -85.988281 183.414062 -85.988281 184.75 -85.21875 Z M 184.75 -85.21875 "/></g></g><g style="fill:#000000;fill-opacity:1;"><g transform="translate(968.663398, 623.992393)"><path style="stroke:none" d="M 149.28125 -86.078125 C 151 -85.890625 152.429688 -85.128906 153.578125 -83.796875 C 154.722656 -82.460938 155.101562 -80.9375 154.71875 -79.21875 C 154.53125 -77.5 153.765625 -76.113281 152.421875 -75.0625 C 151.085938 -74.019531 149.566406 -73.59375 147.859375 -73.78125 C 140.796875 -74.351562 134.117188 -73.78125 127.828125 -72.0625 C 121.535156 -70.351562 116.484375 -68.640625 112.671875 -66.921875 C 112.671875 -66.535156 112.671875 -66.007812 112.671875 -65.34375 C 112.671875 -64.675781 112.671875 -64.15625 112.671875 -63.78125 C 112.097656 -58.625 111.523438 -53.566406 110.953125 -48.609375 C 110.390625 -43.660156 109.535156 -38.707031 108.390625 -33.75 C 107.429688 -28.976562 106.1875 -24.253906 104.65625 -19.578125 C 103.132812 -14.910156 101.519531 -10.382812 99.8125 -6 C 97.90625 -1.039062 95.378906 3.4375 92.234375 7.4375 C 89.085938 11.4375 85.507812 14.960938 81.5 18.015625 C 75.019531 22.785156 69.253906 24.164062 64.203125 22.15625 C 59.148438 20.15625 55.578125 15.34375 53.484375 7.71875 C 52.710938 3.71875 52.421875 -0.378906 52.609375 -4.578125 C 52.804688 -8.773438 53.285156 -12.96875 54.046875 -17.15625 C 55.953125 -24.59375 58.570312 -31.742188 61.90625 -38.609375 C 65.25 -45.472656 69.300781 -51.859375 74.0625 -57.765625 C 79.789062 -64.253906 86.367188 -69.59375 93.796875 -73.78125 C 93.796875 -76.832031 93.507812 -79.644531 92.9375 -82.21875 C 92.375 -84.789062 91.234375 -87.222656 89.515625 -89.515625 C 87.421875 -89.328125 85.609375 -88.753906 84.078125 -87.796875 C 82.554688 -86.847656 81.128906 -85.703125 79.796875 -84.359375 C 77.316406 -81.878906 74.882812 -79.304688 72.5 -76.640625 C 70.113281 -73.972656 68.0625 -71.113281 66.34375 -68.0625 C 55.09375 -50.332031 46.941406 -31.695312 41.890625 -12.15625 C 36.835938 7.382812 35.550781 27.738281 38.03125 48.90625 C 38.414062 52.71875 38.988281 56.578125 39.75 60.484375 C 40.507812 64.390625 41.273438 68.25 42.046875 72.0625 C 42.234375 73.207031 42.5625 74.207031 43.03125 75.0625 C 43.507812 75.925781 43.847656 76.832031 44.046875 77.78125 C 44.617188 80.457031 44.804688 82.75 44.609375 84.65625 C 44.234375 87.707031 42.804688 89.613281 40.328125 90.375 C 37.847656 91.132812 35.554688 90.46875 33.453125 88.375 C 30.597656 85.507812 28.597656 82.265625 27.453125 78.640625 C 25.734375 73.117188 24.0625 67.6875 22.4375 62.34375 C 20.820312 57.007812 19.347656 51.578125 18.015625 46.046875 C 13.816406 28.503906 10.238281 10.773438 7.28125 -7.140625 C 4.332031 -25.066406 2 -42.992188 0.28125 -60.921875 C -0.289062 -70.453125 -0.765625 -79.9375 -1.140625 -89.375 C -1.523438 -98.8125 -1.144531 -108.296875 0 -117.828125 C 0.1875 -120.109375 0.757812 -122.875 1.71875 -126.125 C 3.4375 -130.3125 5.722656 -132.3125 8.578125 -132.125 C 11.816406 -132.125 13.816406 -129.644531 14.578125 -124.6875 C 14.960938 -120.875 15.34375 -116.960938 15.71875 -112.953125 C 16.101562 -108.953125 16.394531 -105.046875 16.59375 -101.234375 C 16.96875 -85.035156 18.015625 -68.785156 19.734375 -52.484375 C 21.453125 -36.179688 23.550781 -19.925781 26.03125 -3.71875 C 26.40625 -3.144531 26.6875 -1.710938 26.875 0.578125 C 28.59375 -5.335938 30.164062 -10.914062 31.59375 -16.15625 C 33.03125 -21.394531 34.507812 -26.398438 36.03125 -31.171875 C 38.320312 -39.179688 41.273438 -46.898438 44.890625 -54.328125 C 48.515625 -61.765625 52.425781 -68.914062 56.625 -75.78125 C 58.71875 -79.21875 60.957031 -82.457031 63.34375 -85.5 C 65.726562 -88.550781 68.347656 -91.507812 71.203125 -94.375 C 72.921875 -96.09375 74.875 -97.664062 77.0625 -99.09375 C 79.257812 -100.519531 81.40625 -101.804688 83.5 -102.953125 C 87.320312 -104.671875 90.992188 -105.003906 94.515625 -103.953125 C 98.046875 -102.898438 100.953125 -100.566406 103.234375 -96.953125 C 105.710938 -93.328125 107.429688 -89.703125 108.390625 -86.078125 C 108.765625 -85.128906 109.144531 -84.082031 109.53125 -82.9375 C 109.914062 -81.789062 110.296875 -80.742188 110.671875 -79.796875 C 110.671875 -79.796875 110.671875 -79.601562 110.671875 -79.21875 C 115.054688 -81.3125 120.679688 -83.164062 127.546875 -84.78125 C 134.410156 -86.40625 141.65625 -86.835938 149.28125 -86.078125 Z M 92.9375 -47.1875 C 93.320312 -48.519531 93.609375 -49.851562 93.796875 -51.1875 C 93.992188 -52.519531 94.1875 -53.851562 94.375 -55.1875 C 93.613281 -54.8125 92.945312 -54.523438 92.375 -54.328125 C 91.800781 -54.140625 91.320312 -53.859375 90.9375 -53.484375 C 83.882812 -47.378906 78.210938 -40.460938 73.921875 -32.734375 C 69.640625 -25.015625 67.019531 -16.390625 66.0625 -6.859375 C 65.675781 -4.378906 65.625 -1.898438 65.90625 0.578125 C 66.195312 3.054688 67.109375 5.628906 68.640625 8.296875 C 70.734375 6.578125 72.445312 5.144531 73.78125 4 C 76.445312 1.144531 78.6875 -1.804688 80.5 -4.859375 C 82.3125 -7.910156 83.597656 -11.148438 84.359375 -14.578125 C 86.078125 -19.921875 87.601562 -25.359375 88.9375 -30.890625 C 90.269531 -36.421875 91.601562 -41.851562 92.9375 -47.1875 Z M 92.9375 -47.1875 "/></g></g><g style="fill:#000000;fill-opacity:1;"><g transform="translate(1117.08329, 623.992393)"><path style="stroke:none" d="M 147 -85.21875 C 148.519531 -84.457031 149.519531 -83.21875 150 -81.5 C 150.476562 -79.789062 150.332031 -78.171875 149.5625 -76.640625 C 149.5625 -76.640625 148.320312 -74.539062 145.84375 -70.34375 C 143.375 -66.15625 140.039062 -60.769531 135.84375 -54.1875 C 131.644531 -47.613281 126.972656 -40.703125 121.828125 -33.453125 C 113.628906 -21.828125 106.625 -12.675781 100.8125 -6 C 95 0.664062 90.234375 5.523438 86.515625 8.578125 C 82.796875 11.628906 79.789062 13.628906 77.5 14.578125 C 73.300781 17.054688 69.148438 17.722656 65.046875 16.578125 C 60.953125 15.441406 57.570312 12.773438 54.90625 8.578125 C 53.570312 6.285156 52.664062 3.851562 52.1875 1.28125 C 51.71875 -1.289062 51.484375 -3.816406 51.484375 -6.296875 C 51.484375 -16.398438 53.195312 -26.125 56.625 -35.46875 C 58.144531 -40.039062 59.8125 -44.566406 61.625 -49.046875 C 63.4375 -53.523438 65.203125 -57.863281 66.921875 -62.0625 C 67.109375 -63.007812 67.34375 -64.007812 67.625 -65.0625 C 67.914062 -66.113281 68.0625 -67.113281 68.0625 -68.0625 C 67.300781 -67.300781 66.585938 -66.488281 65.921875 -65.625 C 65.253906 -64.769531 64.441406 -64.054688 63.484375 -63.484375 C 57.191406 -57.191406 50.992188 -50.992188 44.890625 -44.890625 C 38.796875 -38.796875 32.695312 -32.695312 26.59375 -26.59375 C 24.5 -24.5 22.210938 -22.546875 19.734375 -20.734375 C 17.253906 -18.921875 14.679688 -17.253906 12.015625 -15.734375 C 7.054688 -13.054688 2.484375 -12.476562 -1.703125 -14 C -5.898438 -15.53125 -9.238281 -18.679688 -11.71875 -23.453125 C -13.4375 -27.265625 -14.4375 -31.03125 -14.71875 -34.75 C -15.007812 -38.46875 -14.867188 -42.132812 -14.296875 -45.75 C -12.203125 -58.53125 -8.296875 -70.113281 -2.578125 -80.5 C 3.140625 -90.894531 10.957031 -100.097656 20.875 -108.109375 C 22.96875 -109.816406 25.300781 -111.335938 27.875 -112.671875 C 30.457031 -114.015625 32.988281 -115.351562 35.46875 -116.6875 C 40.039062 -118.96875 45.328125 -120.015625 51.328125 -119.828125 C 57.335938 -119.640625 63.007812 -117.972656 68.34375 -114.828125 C 73.6875 -111.679688 77.785156 -106.675781 80.640625 -99.8125 C 81.210938 -100.570312 81.832031 -101.1875 82.5 -101.65625 C 83.164062 -102.132812 83.691406 -102.660156 84.078125 -103.234375 C 85.410156 -104.765625 86.695312 -106.242188 87.9375 -107.671875 C 89.175781 -109.097656 90.460938 -110.476562 91.796875 -111.8125 C 94.660156 -115.4375 97.804688 -116.296875 101.234375 -114.390625 C 104.097656 -112.484375 104.671875 -109.242188 102.953125 -104.671875 C 102.191406 -102.765625 101.378906 -100.859375 100.515625 -98.953125 C 99.660156 -97.046875 98.757812 -95.234375 97.8125 -93.515625 C 94.1875 -85.316406 90.46875 -77.164062 86.65625 -69.0625 C 82.84375 -60.957031 79.125 -52.804688 75.5 -44.609375 C 73.40625 -39.460938 71.546875 -34.171875 69.921875 -28.734375 C 68.304688 -23.304688 67.019531 -17.828125 66.0625 -12.296875 C 65.875 -10.390625 65.679688 -8.484375 65.484375 -6.578125 C 65.296875 -4.671875 65.296875 -2.765625 65.484375 -0.859375 C 66.441406 4.285156 69.207031 5.429688 73.78125 2.578125 C 75.5 1.242188 77.070312 0.00390625 78.5 -1.140625 C 79.925781 -2.285156 81.3125 -3.617188 82.65625 -5.140625 C 84.75 -7.242188 86.890625 -9.4375 89.078125 -11.71875 C 91.273438 -14.007812 93.328125 -16.203125 95.234375 -18.296875 C 100.953125 -25.546875 107.53125 -34.460938 114.96875 -45.046875 C 122.40625 -55.628906 130.222656 -68.164062 138.421875 -82.65625 C 139.367188 -84.175781 140.703125 -85.222656 142.421875 -85.796875 C 144.140625 -86.367188 145.664062 -86.175781 147 -85.21875 Z M 18.875 -36.890625 C 27.832031 -44.710938 36.363281 -52.816406 44.46875 -61.203125 C 52.570312 -69.585938 60.628906 -78.164062 68.640625 -86.9375 C 68.828125 -87.320312 69.015625 -87.609375 69.203125 -87.796875 C 69.398438 -87.984375 69.59375 -88.175781 69.78125 -88.375 C 69.59375 -88.945312 69.351562 -89.46875 69.0625 -89.9375 C 68.78125 -90.414062 68.445312 -91.035156 68.0625 -91.796875 C 66.34375 -96.941406 62.765625 -100.660156 57.328125 -102.953125 C 51.898438 -105.242188 46.519531 -105.050781 41.1875 -102.375 C 38.707031 -101.425781 36.367188 -100.1875 34.171875 -98.65625 C 31.984375 -97.132812 29.835938 -95.515625 27.734375 -93.796875 C 19.921875 -87.316406 13.820312 -79.878906 9.4375 -71.484375 C 5.050781 -63.097656 1.90625 -53.953125 0 -44.046875 C -0.1875 -42.710938 -0.234375 -41.1875 -0.140625 -39.46875 C -0.046875 -37.75 0 -36.03125 0 -34.3125 C 0 -30.882812 1.238281 -28.40625 3.71875 -26.875 C 6.570312 -28.019531 9.191406 -29.5 11.578125 -31.3125 C 13.960938 -33.125 16.394531 -34.984375 18.875 -36.890625 Z M 18.875 -36.890625 "/></g></g><g style="fill:#000000;fill-opacity:1;"><g transform="translate(1255.494135, 623.992393)"><path style="stroke:none" d="M 104.953125 -82.65625 C 105.710938 -80.9375 105.804688 -79.3125 105.234375 -77.78125 C 104.671875 -76.257812 103.625 -75.019531 102.09375 -74.0625 C 88.75 -68.15625 79.117188 -62.722656 73.203125 -57.765625 C 67.296875 -52.804688 62.4375 -48.800781 58.625 -45.75 C 60.34375 -41.5625 61.25 -36.414062 61.34375 -30.3125 C 61.4375 -24.207031 59.957031 -17.25 56.90625 -9.4375 C 53.476562 0.09375 49.425781 7.476562 44.75 12.71875 C 40.082031 17.96875 35.269531 21.640625 30.3125 23.734375 C 25.351562 25.828125 20.78125 27.066406 16.59375 27.453125 C 15.820312 27.640625 15.101562 27.78125 14.4375 27.875 C 13.769531 27.976562 12.960938 28.03125 12.015625 28.03125 C 8.203125 28.03125 4.578125 27.457031 1.140625 26.3125 C 1.140625 25.925781 1.09375 25.734375 1 25.734375 C 0.90625 25.734375 0.859375 25.734375 0.859375 25.734375 C -2.191406 24.785156 -4.671875 23.164062 -6.578125 20.875 C -8.484375 18.582031 -9.722656 16.101562 -10.296875 13.4375 C -11.054688 8.289062 -10.050781 2.8125 -7.28125 -3 C -4.519531 -8.8125 -1 -14.382812 3.28125 -19.71875 C 7.570312 -25.0625 11.4375 -29.359375 14.875 -32.609375 C 16.582031 -34.128906 19.535156 -36.460938 23.734375 -39.609375 C 27.929688 -42.753906 32.601562 -46.234375 37.75 -50.046875 C 35.65625 -52.140625 33.367188 -53.851562 30.890625 -55.1875 C 28.410156 -56.53125 25.929688 -57.675781 23.453125 -58.625 C 22.691406 -59.195312 22.023438 -59.484375 21.453125 -59.484375 L 20.015625 -60.34375 C 18.296875 -61.289062 15.816406 -62.765625 12.578125 -64.765625 C 9.335938 -66.773438 6.285156 -69.78125 3.421875 -73.78125 C 0.566406 -77.789062 -1.144531 -83.035156 -1.71875 -89.515625 C -2.289062 -99.617188 2.570312 -109.054688 12.875 -117.828125 C 18.019531 -122.210938 23.453125 -125.3125 29.171875 -127.125 C 34.890625 -128.9375 40.035156 -129.269531 44.609375 -128.125 C 49.378906 -126.976562 52.625 -124.304688 54.34375 -120.109375 C 56.050781 -116.679688 56.570312 -112.867188 55.90625 -108.671875 C 55.238281 -104.472656 54.191406 -100.707031 52.765625 -97.375 C 51.335938 -94.039062 50.335938 -91.894531 49.765625 -90.9375 C 47.859375 -87.320312 45.09375 -86.46875 41.46875 -88.375 C 40.132812 -89.320312 39.179688 -90.601562 38.609375 -92.21875 C 38.035156 -93.84375 38.128906 -95.421875 38.890625 -96.953125 C 40.222656 -99.617188 41.507812 -102.859375 42.75 -106.671875 C 43.988281 -110.484375 44.132812 -113.25 43.1875 -114.96875 C 43.1875 -115.539062 42.613281 -115.921875 41.46875 -116.109375 C 38.988281 -116.867188 35.796875 -116.484375 31.890625 -114.953125 C 27.984375 -113.429688 24.3125 -111.242188 20.875 -108.390625 C 13.632812 -102.671875 10.203125 -96.664062 10.578125 -90.375 C 10.960938 -84.65625 12.726562 -80.457031 15.875 -77.78125 C 19.019531 -75.113281 22.304688 -73.019531 25.734375 -71.5 C 25.929688 -71.300781 26.125 -71.203125 26.3125 -71.203125 C 26.5 -71.203125 26.6875 -71.015625 26.875 -70.640625 C 27.257812 -70.640625 27.546875 -70.59375 27.734375 -70.5 C 27.929688 -70.40625 28.125 -70.359375 28.3125 -70.359375 C 28.695312 -70.160156 29.125 -69.96875 29.59375 -69.78125 C 30.070312 -69.59375 30.503906 -69.304688 30.890625 -68.921875 C 30.890625 -68.921875 32.984375 -68.253906 37.171875 -66.921875 C 41.367188 -65.585938 45.566406 -62.820312 49.765625 -58.625 L 51.484375 -56.046875 C 54.335938 -57.953125 57.476562 -60.382812 60.90625 -63.34375 C 64.34375 -66.300781 68.828125 -69.6875 74.359375 -73.5 C 79.890625 -77.3125 87.226562 -81.410156 96.375 -85.796875 C 100.1875 -87.128906 103.046875 -86.082031 104.953125 -82.65625 Z M 43.75 -21.453125 C 44.707031 -25.066406 45.1875 -28.351562 45.1875 -31.3125 C 45.1875 -34.269531 44.804688 -36.988281 44.046875 -39.46875 C 39.273438 -36.03125 35.03125 -32.832031 31.3125 -29.875 C 27.59375 -26.925781 24.878906 -24.691406 23.171875 -23.171875 C 16.679688 -17.253906 11.382812 -10.957031 7.28125 -4.28125 C 3.1875 2.382812 1.425781 7.4375 2 10.875 C 2 12.394531 3.046875 13.535156 5.140625 14.296875 C 10.867188 16.390625 16.398438 15.914062 21.734375 12.875 C 32.023438 7.53125 39.363281 -3.910156 43.75 -21.453125 Z M 43.75 -21.453125 "/></g></g><g style="fill:#000000;fill-opacity:1;"><g transform="translate(1352.724871, 623.992393)"><path style="stroke:none" d="M 104.953125 -82.65625 C 105.710938 -80.9375 105.804688 -79.3125 105.234375 -77.78125 C 104.671875 -76.257812 103.625 -75.019531 102.09375 -74.0625 C 88.75 -68.15625 79.117188 -62.722656 73.203125 -57.765625 C 67.296875 -52.804688 62.4375 -48.800781 58.625 -45.75 C 60.34375 -41.5625 61.25 -36.414062 61.34375 -30.3125 C 61.4375 -24.207031 59.957031 -17.25 56.90625 -9.4375 C 53.476562 0.09375 49.425781 7.476562 44.75 12.71875 C 40.082031 17.96875 35.269531 21.640625 30.3125 23.734375 C 25.351562 25.828125 20.78125 27.066406 16.59375 27.453125 C 15.820312 27.640625 15.101562 27.78125 14.4375 27.875 C 13.769531 27.976562 12.960938 28.03125 12.015625 28.03125 C 8.203125 28.03125 4.578125 27.457031 1.140625 26.3125 C 1.140625 25.925781 1.09375 25.734375 1 25.734375 C 0.90625 25.734375 0.859375 25.734375 0.859375 25.734375 C -2.191406 24.785156 -4.671875 23.164062 -6.578125 20.875 C -8.484375 18.582031 -9.722656 16.101562 -10.296875 13.4375 C -11.054688 8.289062 -10.050781 2.8125 -7.28125 -3 C -4.519531 -8.8125 -1 -14.382812 3.28125 -19.71875 C 7.570312 -25.0625 11.4375 -29.359375 14.875 -32.609375 C 16.582031 -34.128906 19.535156 -36.460938 23.734375 -39.609375 C 27.929688 -42.753906 32.601562 -46.234375 37.75 -50.046875 C 35.65625 -52.140625 33.367188 -53.851562 30.890625 -55.1875 C 28.410156 -56.53125 25.929688 -57.675781 23.453125 -58.625 C 22.691406 -59.195312 22.023438 -59.484375 21.453125 -59.484375 L 20.015625 -60.34375 C 18.296875 -61.289062 15.816406 -62.765625 12.578125 -64.765625 C 9.335938 -66.773438 6.285156 -69.78125 3.421875 -73.78125 C 0.566406 -77.789062 -1.144531 -83.035156 -1.71875 -89.515625 C -2.289062 -99.617188 2.570312 -109.054688 12.875 -117.828125 C 18.019531 -122.210938 23.453125 -125.3125 29.171875 -127.125 C 34.890625 -128.9375 40.035156 -129.269531 44.609375 -128.125 C 49.378906 -126.976562 52.625 -124.304688 54.34375 -120.109375 C 56.050781 -116.679688 56.570312 -112.867188 55.90625 -108.671875 C 55.238281 -104.472656 54.191406 -100.707031 52.765625 -97.375 C 51.335938 -94.039062 50.335938 -91.894531 49.765625 -90.9375 C 47.859375 -87.320312 45.09375 -86.46875 41.46875 -88.375 C 40.132812 -89.320312 39.179688 -90.601562 38.609375 -92.21875 C 38.035156 -93.84375 38.128906 -95.421875 38.890625 -96.953125 C 40.222656 -99.617188 41.507812 -102.859375 42.75 -106.671875 C 43.988281 -110.484375 44.132812 -113.25 43.1875 -114.96875 C 43.1875 -115.539062 42.613281 -115.921875 41.46875 -116.109375 C 38.988281 -116.867188 35.796875 -116.484375 31.890625 -114.953125 C 27.984375 -113.429688 24.3125 -111.242188 20.875 -108.390625 C 13.632812 -102.671875 10.203125 -96.664062 10.578125 -90.375 C 10.960938 -84.65625 12.726562 -80.457031 15.875 -77.78125 C 19.019531 -75.113281 22.304688 -73.019531 25.734375 -71.5 C 25.929688 -71.300781 26.125 -71.203125 26.3125 -71.203125 C 26.5 -71.203125 26.6875 -71.015625 26.875 -70.640625 C 27.257812 -70.640625 27.546875 -70.59375 27.734375 -70.5 C 27.929688 -70.40625 28.125 -70.359375 28.3125 -70.359375 C 28.695312 -70.160156 29.125 -69.96875 29.59375 -69.78125 C 30.070312 -69.59375 30.503906 -69.304688 30.890625 -68.921875 C 30.890625 -68.921875 32.984375 -68.253906 37.171875 -66.921875 C 41.367188 -65.585938 45.566406 -62.820312 49.765625 -58.625 L 51.484375 -56.046875 C 54.335938 -57.953125 57.476562 -60.382812 60.90625 -63.34375 C 64.34375 -66.300781 68.828125 -69.6875 74.359375 -73.5 C 79.890625 -77.3125 87.226562 -81.410156 96.375 -85.796875 C 100.1875 -87.128906 103.046875 -86.082031 104.953125 -82.65625 Z M 43.75 -21.453125 C 44.707031 -25.066406 45.1875 -28.351562 45.1875 -31.3125 C 45.1875 -34.269531 44.804688 -36.988281 44.046875 -39.46875 C 39.273438 -36.03125 35.03125 -32.832031 31.3125 -29.875 C 27.59375 -26.925781 24.878906 -24.691406 23.171875 -23.171875 C 16.679688 -17.253906 11.382812 -10.957031 7.28125 -4.28125 C 3.1875 2.382812 1.425781 7.4375 2 10.875 C 2 12.394531 3.046875 13.535156 5.140625 14.296875 C 10.867188 16.390625 16.398438 15.914062 21.734375 12.875 C 32.023438 7.53125 39.363281 -3.910156 43.75 -21.453125 Z M 43.75 -21.453125 "/></g></g></g></svg>