<svg xmlns="http://www.w3.org/2000/svg" xmlns:xlink="http://www.w3.org/1999/xlink" width="600" zoomAndPan="magnify" viewBox="0 0 450 262.499992" height="350" preserveAspectRatio="xMidYMid meet" version="1.2"><defs><clipPath id="8927a28d18"><path d="M 0.429688 0 L 449.570312 0 L 449.570312 262 L 0.429688 262 Z M 0.429688 0 "/></clipPath><filter x="0%" y="0%" width="100%" filterUnits="objectBoundingBox" id="84a93ef1b3" height="100%"><feColorMatrix values="0 0 0 0 1 0 0 0 0 1 0 0 0 0 1 0 0 0 1 0" type="matrix" in="SourceGraphic"/></filter><clipPath id="04e99c3e1a"><path d="M 4 13 L 428 13 L 428 259 L 4 259 Z M 4 13 "/></clipPath><clipPath id="53af313f8b"><path d="M -28.328125 93.621094 L 439.988281 -0.0390625 L 478.597656 193.011719 L 10.28125 286.671875 Z M -28.328125 93.621094 "/></clipPath><clipPath id="16d36de7b1"><path d="M -28.328125 93.621094 L 439.988281 -0.0390625 L 478.597656 193.011719 L 10.28125 286.671875 Z M -28.328125 93.621094 "/></clipPath><clipPath id="ef496b105d"><path d="M 403 4 L 441 4 L 441 38 L 403 38 Z M 403 4 "/></clipPath><clipPath id="031971b3ad"><path d="M -28.328125 93.621094 L 439.988281 -0.0390625 L 478.597656 193.011719 L 10.28125 286.671875 Z M -28.328125 93.621094 "/></clipPath><clipPath id="b76eca767b"><path d="M -28.328125 93.621094 L 439.988281 -0.0390625 L 478.597656 193.011719 L 10.28125 286.671875 Z M -28.328125 93.621094 "/></clipPath><clipPath id="1b6b7d6f4a"><rect x="0" width="450" y="0" height="262"/></clipPath><clipPath id="664795deff"><path d="M 2 10 L 427 10 L 427 256 L 2 256 Z M 2 10 "/></clipPath><clipPath id="8b75081a6e"><path d="M -29.777344 90.53125 L 438.539062 -3.128906 L 477.148438 189.921875 L 8.832031 283.582031 Z M -29.777344 90.53125 "/></clipPath><clipPath id="f694757a47"><path d="M -29.777344 90.53125 L 438.539062 -3.128906 L 477.148438 189.921875 L 8.832031 283.582031 Z M -29.777344 90.53125 "/></clipPath><clipPath id="1a1f8709d4"><path d="M 402 1 L 439 1 L 439 35 L 402 35 Z M 402 1 "/></clipPath><clipPath id="7213b923ce"><path d="M -29.777344 90.53125 L 438.539062 -3.128906 L 477.148438 189.921875 L 8.832031 283.582031 Z M -29.777344 90.53125 "/></clipPath><clipPath id="ef1e52f847"><path d="M -29.777344 90.53125 L 438.539062 -3.128906 L 477.148438 189.921875 L 8.832031 283.582031 Z M -29.777344 90.53125 "/></clipPath></defs><g id="20f22e09b2"><g clip-rule="nonzero" clip-path="url(#8927a28d18)"><g mask="url(#d002fbe0cb)"><g clip-path="url(#1b6b7d6f4a)"><g clip-rule="nonzero" clip-path="url(#04e99c3e1a)"><g clip-rule="nonzero" clip-path="url(#53af313f8b)"><g clip-rule="nonzero" clip-path="url(#16d36de7b1)"><path style=" stroke:none;fill-rule:nonzero;fill:#d9d9d9;fill-opacity:1;" d="M 410.863281 28.839844 C 409.800781 29.054688 408.660156 28.691406 407.914062 27.804688 C 406.832031 26.507812 407.003906 24.578125 408.300781 23.5 C 412.933594 19.621094 418.011719 16.324219 423.390625 13.695312 C 424.90625 12.949219 426.738281 13.578125 427.476562 15.09375 C 428.21875 16.613281 427.589844 18.441406 426.078125 19.183594 C 421.136719 21.597656 416.476562 24.625 412.21875 28.1875 C 411.8125 28.527344 411.347656 28.742188 410.863281 28.839844 Z M 389.496094 55.832031 C 388.8125 55.96875 388.085938 55.875 387.429688 55.515625 C 385.949219 54.710938 385.40625 52.851562 386.210938 51.371094 C 389.207031 45.886719 392.464844 40.867188 395.898438 36.445312 C 396.9375 35.113281 398.855469 34.871094 400.1875 35.90625 C 401.523438 36.945312 401.757812 38.863281 400.726562 40.195312 C 397.492188 44.355469 394.414062 49.101562 391.578125 54.296875 C 391.128906 55.125 390.347656 55.664062 389.496094 55.832031 Z M 376.128906 87.757812 C 375.621094 87.859375 375.085938 87.835938 374.566406 87.65625 C 372.960938 87.125 372.097656 85.394531 372.632812 83.796875 C 374.667969 77.671875 376.648438 72.289062 378.679688 67.339844 C 379.320312 65.777344 381.109375 65.03125 382.671875 65.671875 C 384.230469 66.3125 384.976562 68.097656 384.335938 69.660156 C 382.359375 74.484375 380.421875 79.738281 378.429688 85.726562 C 378.070312 86.804688 377.167969 87.550781 376.128906 87.757812 Z M 365.976562 120.878906 C 365.488281 120.976562 364.976562 120.957031 364.472656 120.800781 C 362.859375 120.296875 361.957031 118.582031 362.460938 116.972656 C 363.335938 114.15625 364.242188 111.171875 365.226562 107.851562 L 365.738281 106.121094 C 366.296875 104.230469 366.863281 102.328125 367.433594 100.417969 C 367.914062 98.800781 369.617188 97.882812 371.238281 98.363281 C 372.855469 98.847656 373.773438 100.550781 373.289062 102.167969 C 372.71875 104.074219 372.15625 105.972656 371.601562 107.859375 L 371.085938 109.589844 C 370.089844 112.9375 369.179688 115.945312 368.296875 118.789062 C 367.953125 119.894531 367.035156 120.667969 365.976562 120.878906 Z M 129.433594 178.308594 C 128.726562 178.449219 127.96875 178.339844 127.296875 177.949219 C 125.839844 177.101562 125.347656 175.230469 126.195312 173.769531 C 129.488281 168.109375 135.214844 163.761719 141.515625 162.128906 C 143.136719 161.714844 144.816406 162.691406 145.242188 164.328125 C 145.664062 165.964844 144.679688 167.628906 143.046875 168.050781 C 138.292969 169.277344 133.96875 172.5625 131.476562 176.84375 C 131.019531 177.636719 130.261719 178.140625 129.433594 178.308594 Z M 169.8125 184.695312 C 168.351562 184.984375 166.863281 184.175781 166.34375 182.738281 C 164.582031 177.875 161.210938 173.511719 157.09375 170.773438 C 155.6875 169.839844 155.308594 167.941406 156.242188 166.535156 C 157.175781 165.128906 159.074219 164.75 160.480469 165.683594 C 165.742188 169.1875 169.863281 174.5 172.09375 180.65625 C 172.664062 182.246094 171.84375 183.996094 170.257812 184.570312 C 170.109375 184.621094 169.960938 184.664062 169.8125 184.695312 Z M 354.207031 153.4375 C 353.621094 153.554688 352.988281 153.5 352.398438 153.246094 C 350.847656 152.574219 350.132812 150.777344 350.804688 149.226562 C 352.9375 144.28125 354.980469 139.066406 357.046875 133.285156 C 357.609375 131.699219 359.363281 130.871094 360.949219 131.4375 C 362.539062 132.007812 363.367188 133.753906 362.800781 135.34375 C 360.691406 141.246094 358.605469 146.582031 356.414062 151.652344 C 356.003906 152.609375 355.15625 153.246094 354.207031 153.4375 Z M 139.3125 208.507812 C 138.34375 208.703125 137.296875 208.421875 136.546875 207.671875 C 135.046875 206.164062 133.566406 204.59375 132.164062 202.996094 C 130.152344 200.71875 127.261719 197.21875 125.386719 193.175781 C 124.675781 191.644531 125.34375 189.828125 126.875 189.117188 C 128.402344 188.410156 130.21875 189.074219 130.933594 190.605469 C 132.117188 193.167969 133.910156 195.742188 136.746094 198.953125 C 138.070312 200.457031 139.460938 201.9375 140.875 203.355469 C 142.066406 204.550781 142.0625 206.488281 140.871094 207.675781 C 140.425781 208.121094 139.882812 208.394531 139.3125 208.507812 Z M 337.582031 183.730469 C 336.789062 183.890625 335.933594 183.734375 335.226562 183.234375 C 333.84375 182.265625 333.507812 180.359375 334.480469 178.976562 C 337.609375 174.519531 340.609375 169.667969 343.386719 164.554688 C 344.195312 163.074219 346.050781 162.523438 347.53125 163.332031 C 349.015625 164.136719 349.5625 165.988281 348.757812 167.472656 C 345.867188 172.792969 342.746094 177.84375 339.480469 182.492188 C 339.015625 183.160156 338.324219 183.582031 337.582031 183.730469 Z M 165.179688 218.308594 C 164.625 218.417969 164.03125 218.378906 163.460938 218.152344 C 161.890625 217.535156 161.121094 215.761719 161.742188 214.191406 C 163.910156 208.695312 165.671875 202.992188 166.703125 198.125 C 167.054688 196.476562 168.679688 195.421875 170.328125 195.769531 C 171.980469 196.121094 173.035156 197.742188 172.679688 199.394531 C 171.582031 204.582031 169.714844 210.632812 167.425781 216.433594 C 167.03125 217.4375 166.164062 218.109375 165.179688 218.308594 Z M 167.402344 228.484375 C 166.769531 228.609375 166.089844 228.539062 165.464844 228.230469 C 160.085938 225.605469 154.9375 222.554688 150.15625 219.167969 C 148.78125 218.191406 148.457031 216.28125 149.433594 214.90625 C 150.410156 213.527344 152.316406 213.203125 153.695312 214.179688 C 158.203125 217.378906 163.066406 220.257812 168.148438 222.738281 C 169.664062 223.480469 170.292969 225.308594 169.550781 226.828125 C 169.117188 227.71875 168.304688 228.304688 167.402344 228.484375 Z M 24.90625 257.46875 C 24.636719 257.523438 24.347656 257.542969 24.058594 257.519531 C 18.148438 257.046875 12.292969 256.386719 6.65625 255.558594 C 4.988281 255.3125 3.832031 253.757812 4.078125 252.089844 C 4.324219 250.417969 5.875 249.265625 7.542969 249.511719 C 13.046875 250.316406 18.769531 250.964844 24.550781 251.425781 C 26.230469 251.5625 27.484375 253.035156 27.351562 254.714844 C 27.242188 256.109375 26.210938 257.207031 24.90625 257.46875 Z M 59.519531 258.261719 C 59.351562 258.296875 59.179688 258.320312 59.007812 258.324219 C 53.089844 258.496094 47.214844 258.523438 41.53125 258.398438 C 39.84375 258.359375 38.507812 256.964844 38.542969 255.277344 C 38.582031 253.589844 39.980469 252.25 41.664062 252.289062 C 47.242188 252.410156 53.011719 252.382812 58.824219 252.210938 C 60.511719 252.164062 61.917969 253.492188 61.972656 255.175781 C 62.015625 256.6875 60.953125 257.976562 59.519531 258.261719 Z M 314.175781 209.097656 C 313.105469 209.3125 311.957031 208.945312 311.214844 208.042969 C 310.144531 206.742188 310.328125 204.816406 311.628906 203.742188 C 315.972656 200.167969 320.097656 196.265625 323.886719 192.144531 C 325.03125 190.902344 326.96875 190.820312 328.207031 191.964844 C 329.449219 193.109375 329.527344 195.042969 328.386719 196.285156 C 324.402344 200.609375 320.070312 204.707031 315.515625 208.460938 C 315.117188 208.792969 314.652344 209.003906 314.175781 209.097656 Z M 144.703125 245.066406 C 143.371094 245.335938 141.96875 244.675781 141.355469 243.394531 C 140.625 241.867188 141.265625 240.042969 142.785156 239.316406 C 144.683594 238.40625 146.476562 237.394531 148.121094 236.300781 C 149.410156 235.449219 151.523438 233.523438 154.3125 229.171875 C 155.222656 227.75 157.113281 227.335938 158.53125 228.25 C 159.953125 229.160156 160.371094 231.046875 159.457031 232.472656 C 156.761719 236.683594 154.082031 239.683594 151.5 241.394531 C 149.621094 242.640625 147.582031 243.792969 145.429688 244.824219 C 145.195312 244.9375 144.949219 245.019531 144.703125 245.066406 Z M 94.054688 255.703125 C 93.972656 255.71875 93.886719 255.730469 93.804688 255.742188 C 87.9375 256.421875 82.09375 256.980469 76.4375 257.40625 C 74.757812 257.53125 73.289062 256.269531 73.160156 254.585938 C 73.035156 252.902344 74.300781 251.433594 75.980469 251.308594 C 81.554688 250.890625 87.3125 250.339844 93.097656 249.667969 C 94.777344 249.476562 96.292969 250.675781 96.484375 252.355469 C 96.671875 253.945312 95.597656 255.394531 94.054688 255.703125 Z M 125.941406 250.898438 C 123.988281 251.289062 121.871094 251.671875 119.285156 252.109375 C 116.550781 252.566406 113.789062 253.011719 111.082031 253.421875 C 109.410156 253.675781 107.851562 252.53125 107.597656 250.859375 C 107.347656 249.191406 108.507812 247.613281 110.160156 247.378906 C 112.839844 246.972656 115.574219 246.535156 118.273438 246.082031 C 120.796875 245.65625 122.855469 245.285156 124.742188 244.90625 C 125.503906 244.753906 126.265625 244.59375 127.023438 244.425781 C 127.042969 244.421875 127.058594 244.417969 127.078125 244.414062 C 128.707031 244.089844 130.304688 245.132812 130.664062 246.761719 C 131.023438 248.414062 129.976562 250.042969 128.328125 250.402344 C 127.535156 250.574219 126.738281 250.738281 125.941406 250.898438 Z M 200.308594 238.898438 C 199.953125 238.96875 199.578125 238.980469 199.203125 238.914062 C 193.308594 237.921875 187.511719 236.535156 181.964844 234.792969 C 180.355469 234.285156 179.460938 232.570312 179.964844 230.960938 C 180.46875 229.351562 182.1875 228.453125 183.796875 228.960938 C 189.078125 230.621094 194.601562 231.941406 200.214844 232.886719 C 201.878906 233.164062 203 234.742188 202.726562 236.40625 C 202.507812 237.695312 201.515625 238.65625 200.308594 238.898438 Z M 284.875 227.378906 C 283.515625 227.652344 282.101562 226.96875 281.5 225.65625 C 280.796875 224.121094 281.472656 222.308594 283.003906 221.605469 C 288.195312 219.226562 293.207031 216.535156 297.910156 213.601562 C 299.339844 212.710938 301.226562 213.144531 302.121094 214.578125 C 303.015625 216.007812 302.574219 217.894531 301.144531 218.789062 C 296.222656 221.855469 290.972656 224.675781 285.550781 227.160156 C 285.332031 227.261719 285.101562 227.335938 284.875 227.378906 Z M 234.832031 240.320312 C 234.710938 240.34375 234.59375 240.359375 234.46875 240.371094 C 228.570312 240.839844 222.625 240.960938 216.800781 240.730469 C 215.113281 240.65625 213.800781 239.238281 213.867188 237.550781 C 213.941406 235.863281 215.355469 234.554688 217.046875 234.617188 C 222.628906 234.84375 228.328125 234.730469 233.984375 234.277344 C 235.667969 234.144531 237.140625 235.402344 237.277344 237.082031 C 237.398438 238.640625 236.328125 240.019531 234.832031 240.320312 Z M 252.351562 237.875 L 251.960938 237.953125 C 250.308594 238.277344 248.703125 237.199219 248.378906 235.542969 C 248.054688 233.894531 249.128906 232.289062 250.777344 231.960938 C 250.78125 231.957031 250.785156 231.957031 250.789062 231.957031 L 251.152344 231.882812 C 256.570312 230.800781 261.972656 229.402344 267.203125 227.722656 C 268.8125 227.207031 270.53125 228.09375 271.046875 229.699219 C 271.5625 231.308594 270.675781 233.027344 269.070312 233.542969 C 263.621094 235.292969 257.996094 236.746094 252.351562 237.875 "/></g></g></g><g clip-rule="nonzero" clip-path="url(#ef496b105d)"><g clip-rule="nonzero" clip-path="url(#031971b3ad)"><g clip-rule="nonzero" clip-path="url(#b76eca767b)"><path style=" stroke:none;fill-rule:nonzero;fill:#d9d9d9;fill-opacity:1;" d="M 439.925781 8.132812 L 426.90625 36.253906 C 425.820312 38.589844 422.421875 38.355469 421.671875 35.886719 L 417.472656 22.050781 C 417.296875 21.476562 416.941406 20.96875 416.457031 20.609375 L 404.847656 11.992188 C 402.777344 10.453125 403.699219 7.171875 406.265625 6.941406 L 437.128906 4.160156 C 439.28125 3.96875 440.832031 6.175781 439.925781 8.132812 "/></g></g></g></g><mask id="d002fbe0cb"><g filter="url(#84a93ef1b3)"><rect x="0" width="450" y="0" height="262.499992" style="fill:#000000;fill-opacity:0.59;stroke:none;"/></g></mask></g></g><g clip-rule="nonzero" clip-path="url(#664795deff)"><g clip-rule="nonzero" clip-path="url(#8b75081a6e)"><g clip-rule="nonzero" clip-path="url(#f694757a47)"><path style=" stroke:none;fill-rule:nonzero;fill:#b6d9c4;fill-opacity:1;" d="M 409.414062 25.75 C 408.351562 25.964844 407.210938 25.601562 406.464844 24.710938 C 405.382812 23.417969 405.554688 21.488281 406.851562 20.410156 C 411.484375 16.53125 416.5625 13.234375 421.941406 10.605469 C 423.457031 9.859375 425.289062 10.488281 426.027344 12.003906 C 426.769531 13.519531 426.140625 15.351562 424.628906 16.09375 C 419.6875 18.507812 415.027344 21.535156 410.769531 25.097656 C 410.363281 25.4375 409.898438 25.652344 409.414062 25.75 Z M 388.046875 52.742188 C 387.363281 52.878906 386.636719 52.785156 385.980469 52.425781 C 384.5 51.621094 383.957031 49.761719 384.761719 48.28125 C 387.757812 42.796875 391.015625 37.777344 394.449219 33.355469 C 395.488281 32.023438 397.40625 31.78125 398.738281 32.816406 C 400.074219 33.855469 400.308594 35.773438 399.277344 37.105469 C 396.042969 41.265625 392.964844 46.011719 390.128906 51.207031 C 389.679688 52.035156 388.898438 52.574219 388.046875 52.742188 Z M 374.679688 84.667969 C 374.171875 84.769531 373.636719 84.746094 373.117188 84.566406 C 371.511719 84.035156 370.648438 82.304688 371.183594 80.703125 C 373.21875 74.582031 375.199219 69.199219 377.230469 64.25 C 377.871094 62.6875 379.660156 61.941406 381.222656 62.582031 C 382.78125 63.222656 383.527344 65.007812 382.886719 66.570312 C 380.910156 71.394531 378.972656 76.648438 376.980469 82.632812 C 376.621094 83.714844 375.71875 84.460938 374.679688 84.667969 Z M 364.527344 117.789062 C 364.039062 117.886719 363.527344 117.867188 363.023438 117.707031 C 361.410156 117.207031 360.507812 115.492188 361.011719 113.882812 C 361.886719 111.066406 362.792969 108.082031 363.777344 104.761719 L 364.289062 103.03125 C 364.847656 101.140625 365.414062 99.238281 365.984375 97.328125 C 366.464844 95.707031 368.167969 94.792969 369.789062 95.273438 C 371.40625 95.757812 372.324219 97.460938 371.839844 99.078125 C 371.269531 100.984375 370.707031 102.882812 370.152344 104.765625 L 369.636719 106.5 C 368.640625 109.847656 367.730469 112.855469 366.847656 115.699219 C 366.503906 116.804688 365.585938 117.578125 364.527344 117.789062 Z M 127.984375 175.21875 C 127.277344 175.359375 126.519531 175.25 125.847656 174.859375 C 124.390625 174.011719 123.898438 172.140625 124.746094 170.679688 C 128.039062 165.019531 133.765625 160.671875 140.066406 159.039062 C 141.6875 158.625 143.367188 159.601562 143.792969 161.238281 C 144.214844 162.875 143.230469 164.539062 141.597656 164.960938 C 136.84375 166.1875 132.519531 169.472656 130.027344 173.753906 C 129.570312 174.546875 128.8125 175.050781 127.984375 175.21875 Z M 168.363281 181.601562 C 166.902344 181.894531 165.414062 181.085938 164.894531 179.648438 C 163.132812 174.785156 159.761719 170.421875 155.644531 167.683594 C 154.238281 166.75 153.859375 164.851562 154.792969 163.445312 C 155.726562 162.039062 157.625 161.660156 159.03125 162.59375 C 164.292969 166.097656 168.414062 171.410156 170.644531 177.566406 C 171.214844 179.15625 170.394531 180.90625 168.808594 181.480469 C 168.660156 181.53125 168.511719 181.574219 168.363281 181.601562 Z M 352.757812 150.347656 C 352.171875 150.464844 351.539062 150.410156 350.949219 150.152344 C 349.398438 149.484375 348.6875 147.6875 349.355469 146.136719 C 351.488281 141.191406 353.53125 135.976562 355.597656 130.195312 C 356.164062 128.609375 357.914062 127.78125 359.5 128.347656 C 361.089844 128.917969 361.917969 130.664062 361.351562 132.253906 C 359.242188 138.15625 357.15625 143.492188 354.964844 148.558594 C 354.554688 149.519531 353.707031 150.15625 352.757812 150.347656 Z M 137.863281 205.417969 C 136.894531 205.613281 135.847656 205.332031 135.097656 204.582031 C 133.597656 203.074219 132.117188 201.503906 130.714844 199.90625 C 128.703125 197.628906 125.8125 194.128906 123.9375 190.085938 C 123.226562 188.554688 123.894531 186.738281 125.425781 186.027344 C 126.953125 185.320312 128.769531 185.984375 129.484375 187.515625 C 130.667969 190.078125 132.460938 192.652344 135.296875 195.863281 C 136.621094 197.367188 138.011719 198.84375 139.425781 200.265625 C 140.617188 201.460938 140.613281 203.394531 139.421875 204.585938 C 138.976562 205.03125 138.4375 205.304688 137.863281 205.417969 Z M 336.132812 180.640625 C 335.339844 180.800781 334.484375 180.644531 333.777344 180.144531 C 332.394531 179.175781 332.058594 177.269531 333.03125 175.886719 C 336.160156 171.429688 339.160156 166.578125 341.9375 161.464844 C 342.746094 159.980469 344.601562 159.433594 346.082031 160.242188 C 347.566406 161.046875 348.113281 162.898438 347.308594 164.382812 C 344.417969 169.703125 341.296875 174.753906 338.03125 179.402344 C 337.566406 180.070312 336.875 180.492188 336.132812 180.640625 Z M 163.730469 215.21875 C 163.175781 215.328125 162.582031 215.289062 162.011719 215.0625 C 160.441406 214.445312 159.671875 212.667969 160.292969 211.101562 C 162.460938 205.605469 164.222656 199.902344 165.253906 195.035156 C 165.605469 193.386719 167.230469 192.332031 168.878906 192.679688 C 170.53125 193.03125 171.585938 194.652344 171.230469 196.304688 C 170.132812 201.492188 168.265625 207.542969 165.980469 213.34375 C 165.582031 214.347656 164.714844 215.019531 163.730469 215.21875 Z M 165.953125 225.394531 C 165.320312 225.519531 164.640625 225.449219 164.015625 225.140625 C 158.636719 222.515625 153.488281 219.464844 148.707031 216.078125 C 147.332031 215.097656 147.007812 213.191406 147.984375 211.816406 C 148.960938 210.4375 150.867188 210.113281 152.246094 211.089844 C 156.753906 214.289062 161.617188 217.167969 166.699219 219.648438 C 168.214844 220.390625 168.84375 222.21875 168.101562 223.738281 C 167.667969 224.628906 166.855469 225.214844 165.953125 225.394531 Z M 23.457031 254.378906 C 23.1875 254.433594 22.902344 254.449219 22.609375 254.429688 C 16.699219 253.957031 10.84375 253.292969 5.207031 252.46875 C 3.539062 252.222656 2.382812 250.667969 2.628906 249 C 2.875 247.328125 4.425781 246.175781 6.09375 246.417969 C 11.597656 247.226562 17.320312 247.875 23.101562 248.335938 C 24.78125 248.472656 26.035156 249.945312 25.902344 251.625 C 25.792969 253.019531 24.761719 254.117188 23.457031 254.378906 Z M 58.070312 255.171875 C 57.902344 255.207031 57.730469 255.230469 57.558594 255.234375 C 51.640625 255.40625 45.765625 255.429688 40.082031 255.308594 C 38.394531 255.269531 37.058594 253.875 37.09375 252.1875 C 37.132812 250.5 38.53125 249.160156 40.214844 249.199219 C 45.792969 249.320312 51.5625 249.292969 57.375 249.121094 C 59.0625 249.074219 60.46875 250.398438 60.523438 252.085938 C 60.566406 253.597656 59.503906 254.886719 58.070312 255.171875 Z M 312.726562 206.007812 C 311.65625 206.222656 310.507812 205.855469 309.765625 204.953125 C 308.695312 203.652344 308.878906 201.726562 310.179688 200.652344 C 314.523438 197.078125 318.648438 193.175781 322.4375 189.054688 C 323.582031 187.8125 325.519531 187.730469 326.757812 188.875 C 328 190.019531 328.078125 191.953125 326.9375 193.195312 C 322.953125 197.519531 318.621094 201.617188 314.066406 205.371094 C 313.667969 205.703125 313.203125 205.914062 312.726562 206.007812 Z M 143.253906 241.976562 C 141.921875 242.242188 140.519531 241.585938 139.90625 240.300781 C 139.175781 238.777344 139.816406 236.953125 141.335938 236.226562 C 143.234375 235.316406 145.03125 234.300781 146.671875 233.210938 C 147.960938 232.359375 150.074219 230.433594 152.863281 226.082031 C 153.773438 224.660156 155.664062 224.246094 157.085938 225.160156 C 158.503906 226.070312 158.921875 227.957031 158.007812 229.382812 C 155.3125 233.59375 152.632812 236.59375 150.050781 238.304688 C 148.171875 239.550781 146.132812 240.703125 143.980469 241.734375 C 143.746094 241.847656 143.5 241.929688 143.253906 241.976562 Z M 92.605469 252.613281 C 92.523438 252.628906 92.4375 252.640625 92.355469 252.652344 C 86.488281 253.332031 80.644531 253.890625 74.992188 254.316406 C 73.308594 254.4375 71.839844 253.179688 71.710938 251.496094 C 71.585938 249.8125 72.851562 248.34375 74.53125 248.21875 C 80.105469 247.800781 85.863281 247.25 91.648438 246.578125 C 93.328125 246.386719 94.84375 247.585938 95.035156 249.265625 C 95.222656 250.855469 94.148438 252.304688 92.605469 252.613281 Z M 124.492188 247.808594 C 122.539062 248.199219 120.421875 248.582031 117.835938 249.019531 C 115.101562 249.476562 112.339844 249.921875 109.632812 250.332031 C 107.960938 250.585938 106.402344 249.441406 106.148438 247.769531 C 105.898438 246.101562 107.058594 244.523438 108.710938 244.289062 C 111.390625 243.882812 114.125 243.445312 116.824219 242.988281 C 119.347656 242.566406 121.40625 242.195312 123.292969 241.816406 C 124.054688 241.664062 124.816406 241.503906 125.574219 241.335938 C 125.59375 241.332031 125.609375 241.328125 125.628906 241.324219 C 127.257812 241 128.855469 242.042969 129.214844 243.671875 C 129.574219 245.324219 128.527344 246.953125 126.878906 247.3125 C 126.085938 247.480469 125.289062 247.648438 124.492188 247.808594 Z M 198.859375 235.808594 C 198.503906 235.878906 198.128906 235.886719 197.753906 235.824219 C 191.859375 234.832031 186.0625 233.445312 180.515625 231.703125 C 178.90625 231.195312 178.011719 229.480469 178.515625 227.871094 C 179.019531 226.261719 180.738281 225.363281 182.347656 225.871094 C 187.628906 227.53125 193.152344 228.851562 198.765625 229.796875 C 200.429688 230.074219 201.550781 231.652344 201.277344 233.316406 C 201.058594 234.605469 200.066406 235.566406 198.859375 235.808594 Z M 283.425781 224.289062 C 282.066406 224.5625 280.652344 223.878906 280.050781 222.566406 C 279.347656 221.03125 280.023438 219.21875 281.554688 218.515625 C 286.746094 216.136719 291.757812 213.445312 296.460938 210.511719 C 297.890625 209.621094 299.777344 210.054688 300.671875 211.484375 C 301.566406 212.917969 301.125 214.804688 299.695312 215.699219 C 294.773438 218.765625 289.523438 221.585938 284.101562 224.070312 C 283.882812 224.171875 283.652344 224.246094 283.425781 224.289062 Z M 233.382812 237.230469 C 233.261719 237.253906 233.144531 237.269531 233.019531 237.277344 C 227.121094 237.75 221.175781 237.871094 215.351562 237.640625 C 213.664062 237.566406 212.351562 236.148438 212.417969 234.460938 C 212.492188 232.773438 213.90625 231.464844 215.597656 231.527344 C 221.179688 231.753906 226.878906 231.640625 232.535156 231.1875 C 234.21875 231.054688 235.691406 232.308594 235.828125 233.992188 C 235.949219 235.550781 234.878906 236.929688 233.382812 237.230469 Z M 250.902344 234.785156 L 250.511719 234.863281 C 248.859375 235.1875 247.253906 234.109375 246.929688 232.453125 C 246.605469 230.800781 247.679688 229.199219 249.328125 228.867188 C 249.332031 228.867188 249.335938 228.867188 249.339844 228.867188 L 249.703125 228.792969 C 255.121094 227.710938 260.523438 226.308594 265.753906 224.632812 C 267.363281 224.117188 269.082031 225.003906 269.597656 226.609375 C 270.113281 228.21875 269.226562 229.9375 267.621094 230.453125 C 262.171875 232.203125 256.546875 233.65625 250.902344 234.785156 "/></g></g></g><g clip-rule="nonzero" clip-path="url(#1a1f8709d4)"><g clip-rule="nonzero" clip-path="url(#7213b923ce)"><g clip-rule="nonzero" clip-path="url(#ef1e52f847)"><path style=" stroke:none;fill-rule:nonzero;fill:#b6d9c4;fill-opacity:1;" d="M 438.476562 5.042969 L 425.457031 33.164062 C 424.371094 35.5 420.972656 35.265625 420.222656 32.796875 L 416.023438 18.960938 C 415.847656 18.386719 415.492188 17.878906 415.007812 17.519531 L 403.398438 8.902344 C 401.328125 7.363281 402.25 4.082031 404.816406 3.851562 L 435.679688 1.070312 C 437.832031 0.878906 439.382812 3.085938 438.476562 5.042969 "/></g></g></g></g></svg>